<?xml version="1.0" standalone="no"?>
<!DOCTYPE svg PUBLIC "-//W3C//DTD SVG 20010904//EN"
 "http://www.w3.org/TR/2001/REC-SVG-20010904/DTD/svg10.dtd">
<svg version="1.0" xmlns="http://www.w3.org/2000/svg"
 width="276.000000pt" height="110.000000pt" viewBox="0 0 276.000000 110.000000"
 preserveAspectRatio="xMidYMid meet">

<g transform="translate(0.000000,110.000000) scale(0.100000,-0.100000)"
fill="#000000" stroke="none">
<path d="M2217 784 c-11 -11 -8 -64 3 -64 14 0 24 50 13 61 -5 5 -12 6 -16 3z"/>
<path d="M2120 748 c0 -7 7 -22 15 -32 22 -29 40 -7 19 22 -17 24 -34 29 -34
10z"/>
<path d="M2284 735 c-9 -14 -14 -29 -10 -32 8 -9 57 38 50 48 -9 15 -23 10
-40 -16z"/>
<path d="M130 715 c-16 -19 -61 -267 -50 -278 4 -5 23 -7 41 -5 l34 3 15 84
15 85 79 -87 c64 -70 85 -87 107 -87 19 0 33 8 43 23 11 17 56 235 56 270 0
12 -67 8 -78 -5 -5 -7 -15 -46 -22 -87 l-12 -75 -80 87 c-64 69 -86 87 -108
87 -15 0 -33 -7 -40 -15z"/>
<path d="M738 720 c-74 -22 -138 -94 -138 -154 0 -45 27 -94 62 -113 27 -14
57 -18 163 -18 l130 0 11 55 c6 30 13 72 17 93 l6 37 -110 0 c-87 0 -109 -3
-109 -14 0 -8 -3 -21 -6 -30 -5 -14 3 -16 55 -16 58 0 61 -1 61 -25 0 -24 -2
-25 -66 -25 -95 0 -135 29 -114 84 15 41 46 51 174 56 l120 5 7 29 c5 16 6 33
3 38 -7 10 -230 9 -266 -2z"/>
<path d="M1036 718 c-3 -7 -7 -25 -10 -40 l-6 -28 92 0 92 0 -39 40 c-34 34
-45 40 -82 40 -26 0 -45 -5 -47 -12z"/>
<path d="M1302 718 c-7 -7 -12 -26 -12 -44 0 -17 -6 -36 -13 -42 -8 -7 -67
-13 -138 -14 l-124 -3 -12 -65 c-7 -36 -12 -78 -13 -93 0 -27 2 -28 42 -25 42
3 43 4 53 50 5 26 15 52 21 58 6 6 39 10 80 8 l69 -3 0 -55 0 -55 43 -3 c23
-2 42 -2 42 0 0 2 11 65 25 142 14 76 22 142 19 147 -8 13 -68 11 -82 -3z"/>
<path d="M1410 711 c-5 -11 -10 -29 -10 -40 0 -19 6 -21 60 -21 69 0 66 8 45
-110 -20 -116 -22 -110 30 -110 25 0 45 2 45 3 0 2 11 64 25 138 14 74 25 140
25 147 0 9 -28 12 -105 12 -93 0 -105 -2 -115 -19z"/>
<path d="M1650 704 c-19 -48 -14 -55 33 -52 41 3 42 4 45 41 3 36 3 37 -33 37
-29 0 -37 -5 -45 -26z"/>
<path d="M1765 718 c-11 -33 -35 -189 -35 -227 0 -36 4 -43 26 -52 39 -14 296
-7 302 9 3 9 -28 12 -131 12 -154 0 -161 3 -151 69 8 47 29 58 90 46 46 -8
215 5 208 16 -3 5 -68 9 -145 9 l-141 0 7 43 c4 23 10 46 14 50 4 4 59 6 122
5 l114 -3 63 -85 c35 -47 71 -86 80 -88 10 -1 55 35 111 88 l93 89 146 3 c105
2 146 6 150 16 3 9 -33 12 -158 12 l-162 0 -82 -80 c-45 -44 -87 -80 -92 -80
-5 0 -33 36 -62 80 l-52 80 -155 0 c-116 0 -157 -3 -160 -12z"/>
<path d="M538 708 c-25 -8 -39 -28 -22 -28 19 0 84 24 84 32 0 10 -28 9 -62
-4z"/>
<path d="M533 668 c-33 -11 -45 -28 -19 -28 23 0 76 22 76 31 0 11 -15 10 -57
-3z"/>
<path d="M530 626 c-31 -11 -36 -19 -47 -62 -6 -27 -12 -68 -12 -92 l-1 -43
42 3 42 3 17 95 c10 52 18 98 18 103 1 10 -18 8 -59 -7z"/>
<path d="M2345 607 c-8 -13 -18 -51 -21 -84 -9 -88 3 -94 176 -91 96 2 135 7
138 16 3 9 -27 12 -127 12 -114 0 -131 2 -139 18 -12 21 -4 80 11 89 6 4 71 6
144 6 107 -1 133 2 133 13 0 11 -26 14 -135 14 -111 0 -137 3 -141 15 -9 21
-21 19 -39 -8z"/>
<path d="M2150 497 c0 -9 12 -11 40 -9 22 2 40 8 40 13 0 5 -18 9 -40 9 -26 0
-40 -5 -40 -13z"/>
<path d="M2150 461 c0 -5 7 -14 16 -21 13 -11 19 -10 37 8 l21 22 -37 0 c-20
0 -37 -4 -37 -9z"/>
<path d="M957 355 c-15 -19 -23 -35 -18 -35 5 0 12 4 15 9 3 4 17 6 31 3 26
-5 32 8 19 42 -9 23 -16 20 -47 -19z"/>
<path d="M1037 383 c-4 -3 -7 -19 -7 -35 0 -27 3 -29 32 -26 24 2 36 10 46 31
16 32 36 26 28 -9 -4 -14 -2 -24 4 -24 5 0 10 8 10 18 0 18 18 42 30 42 4 0 5
-13 2 -30 -4 -28 -2 -30 29 -29 28 1 30 2 11 7 -13 4 -23 10 -23 15 1 4 1 12
1 17 0 6 11 10 25 10 14 0 25 -4 25 -10 0 -5 5 -10 10 -10 17 0 11 28 -7 33
-10 3 -47 5 -83 6 -64 1 -66 1 -77 -30 -16 -40 -50 -38 -45 4 3 27 1 32 -11
20z"/>
<path d="M1302 361 c-7 -19 -12 -36 -12 -37 0 -2 20 -4 44 -4 34 0 46 4 49 18
4 16 5 16 6 0 1 -15 10 -18 51 -18 38 0 50 4 50 15 0 8 9 15 20 15 11 0 20 -7
20 -16 0 -8 5 -12 10 -9 6 3 10 15 10 26 0 11 7 19 16 19 12 0 15 -6 10 -25
-9 -36 7 -31 21 6 7 19 16 28 23 24 6 -4 9 -13 6 -20 -5 -13 12 -35 26 -35 4
0 8 7 8 15 0 20 9 19 33 -2 14 -13 21 -15 24 -6 3 10 10 9 26 -2 28 -18 67 -9
67 16 0 13 -7 19 -22 19 -18 0 -20 -2 -8 -10 18 -11 7 -25 -15 -17 -24 10 -17
27 18 42 l32 15 -48 -3 c-37 -2 -48 -6 -53 -21 -7 -20 -7 -20 -23 0 -22 27
-131 34 -151 9 -17 -20 -40 -19 -40 3 -1 16 -1 16 -14 0 -7 -10 -23 -18 -34
-18 -15 0 -20 -5 -16 -15 6 -16 -21 -22 -30 -7 -8 13 7 28 39 40 26 9 27 11 7
11 -13 1 -32 -4 -43 -9 -13 -8 -19 -7 -19 0 0 6 -4 8 -10 5 -5 -3 -10 -15 -10
-26 0 -10 -4 -20 -10 -20 -30 -5 -35 -1 -40 26 l-6 30 -12 -34z"/>
<path d="M660 370 l-225 -6 233 -2 c149 -1 232 2 232 8 0 6 -3 9 -7 8 -5 -1
-109 -5 -233 -8z"/>
<path d="M2080 370 l-225 -6 233 -2 c153 -1 231 1 227 8 -3 6 -7 9 -8 8 -1 -1
-103 -5 -227 -8z"/>
<path d="M434 338 c-3 -4 99 -8 225 -8 127 0 231 3 231 8 0 10 -450 10 -456 0z"/>
<path d="M1850 338 c0 -4 104 -8 230 -8 127 0 230 3 230 8 0 4 -103 7 -230 8
-126 0 -230 -3 -230 -8z"/>
</g>
</svg>
