<?xml version="1.0" standalone="no"?>
<!DOCTYPE svg PUBLIC "-//W3C//DTD SVG 20010904//EN"
 "http://www.w3.org/TR/2001/REC-SVG-20010904/DTD/svg10.dtd">
<svg version="1.0" xmlns="http://www.w3.org/2000/svg"
 width="276.000000pt" height="110.000000pt" viewBox="0 0 276.000000 110.000000"
 preserveAspectRatio="xMidYMid meet">

<g transform="translate(0.000000,110.000000) scale(0.100000,-0.100000)"
fill="#000000" stroke="none">
<path d="M232 852 c-66 -24 -118 -65 -159 -126 -43 -62 -56 -116 -51 -196 9
-124 77 -223 186 -273 70 -32 199 -31 267 2 64 32 124 93 155 156 19 40 24 66
24 135 1 98 -18 151 -79 218 -80 89 -228 125 -343 84z m198 -23 c65 -20 131
-78 167 -148 76 -147 20 -316 -129 -390 -190 -96 -418 42 -418 253 0 32 5 76
11 96 33 109 156 200 271 200 33 0 78 -5 98 -11z"/>
<path d="M166 714 c-86 -88 -87 -225 -3 -320 53 -60 67 -58 67 11 l0 55 110 0
110 0 0 -55 c0 -65 11 -70 57 -25 90 88 94 245 8 333 -51 53 -65 49 -65 -18
l0 -55 -110 0 -110 0 0 55 c0 67 -14 71 -64 19z m34 -166 c0 -150 0 -151 -20
-133 -57 51 -66 184 -16 249 15 20 29 36 32 36 2 0 4 -68 4 -152z m331 91 c34
-67 16 -186 -34 -228 -16 -12 -17 -2 -17 139 0 138 2 151 16 139 8 -7 24 -30
35 -50z m-81 -89 l0 -60 -110 0 -110 0 0 60 0 60 110 0 110 0 0 -60z"/>
<path d="M1289 741 c-60 -37 -82 -85 -87 -181 -3 -67 -1 -81 25 -129 47 -90
146 -125 240 -86 82 34 117 96 117 205 0 81 -20 134 -66 177 -56 53 -159 59
-229 14z m157 -94 c38 -33 46 -125 15 -174 -58 -92 -174 -15 -156 104 13 85
83 120 141 70z"/>
<path d="M1694 754 c-41 -20 -64 -63 -64 -119 0 -62 34 -97 116 -120 85 -24
84 -23 91 -41 8 -21 -30 -54 -62 -54 -12 0 -39 11 -59 25 -20 14 -40 25 -45
25 -4 0 -20 -14 -37 -31 l-29 -30 32 -29 c71 -64 206 -65 275 -3 25 22 41 79
34 118 -10 51 -47 81 -127 100 -77 19 -101 42 -73 69 20 21 54 20 99 -1 35
-17 36 -17 63 10 32 32 25 52 -29 79 -42 22 -142 23 -185 2z"/>
<path d="M2094 756 c-46 -20 -92 -82 -106 -144 -23 -104 22 -221 102 -262 73
-37 178 -22 229 33 29 32 24 47 -22 71 -34 19 -35 19 -62 -2 -37 -29 -68 -28
-106 6 -25 23 -33 38 -36 78 -11 108 68 170 141 113 29 -23 41 -21 90 17 20
14 20 14 0 41 -44 58 -154 82 -230 49z"/>
<path d="M810 550 l0 -210 125 0 c143 0 185 12 209 59 26 49 21 98 -15 133
l-30 31 20 21 c27 28 28 102 3 132 -30 38 -56 44 -186 44 l-126 0 0 -210z
m215 85 c0 -29 -2 -30 -52 -33 l-53 -3 0 36 0 36 53 -3 c50 -3 52 -4 52 -33z
m19 -147 c20 -33 -4 -53 -68 -56 l-56 -3 0 41 0 41 56 -3 c41 -2 60 -8 68 -20z"/>
<path d="M2390 550 l0 -210 55 0 54 0 3 83 3 82 60 0 60 0 3 -82 3 -83 54 0
55 0 0 210 0 210 -55 0 -55 0 0 -75 0 -75 -65 0 -65 0 0 75 0 75 -55 0 -55 0
0 -210z"/>
</g>
</svg>
