<?xml version="1.0" standalone="no"?>
<!DOCTYPE svg PUBLIC "-//W3C//DTD SVG 20010904//EN"
 "http://www.w3.org/TR/2001/REC-SVG-20010904/DTD/svg10.dtd">
<svg version="1.0" xmlns="http://www.w3.org/2000/svg"
 width="276.000000pt" height="110.000000pt" viewBox="0 0 276.000000 110.000000"
 preserveAspectRatio="xMidYMid meet">

<g transform="translate(0.000000,110.000000) scale(0.100000,-0.100000)"
fill="#000000" stroke="none">
<path d="M1280 1014 c-177 -33 -271 -67 -368 -132 -78 -53 -128 -111 -165
-191 -79 -167 -12 -354 171 -474 305 -201 781 -171 1025 64 27 26 46 52 42 58
-14 24 -58 10 -105 -33 -145 -135 -430 -198 -673 -148 -180 38 -338 137 -401
253 -44 79 -48 175 -12 256 144 320 759 400 1078 140 58 -47 108 -62 108 -33
0 26 -113 116 -195 157 -112 55 -216 79 -360 84 -66 2 -131 2 -145 -1z"/>
<path d="M1276 889 c-126 -17 -336 -106 -336 -142 0 -6 31 -8 93 -3 50 3 246
9 435 13 229 4 341 10 339 17 -7 20 -124 76 -199 95 -93 24 -240 33 -332 20z"/>
<path d="M1840 703 l-85 -4 0 -144 0 -145 36 0 c38 0 49 14 49 68 0 20 5 22
56 22 l57 0 -5 -45 -6 -45 44 0 c39 0 44 3 51 28 10 36 10 188 0 235 l-8 37
-52 -2 c-29 -1 -90 -4 -137 -5z m110 -72 c0 -5 3 -23 6 -40 l7 -31 -62 0 -61
0 0 40 0 40 55 0 c30 0 55 -4 55 -9z"/>
<path d="M1537 693 c-4 -3 -7 -66 -7 -138 l0 -132 91 -7 c50 -4 93 -5 96 -3 2
3 5 17 6 33 2 29 1 29 -55 32 l-58 3 0 72 c0 40 -3 89 -6 110 -6 32 -10 37
-34 37 -15 0 -30 -3 -33 -7z"/>
<path d="M1170 681 l-85 -6 0 -120 0 -120 98 -3 97 -3 0 26 c0 24 -2 25 -70
25 l-70 0 0 30 0 30 60 0 c53 0 60 2 60 20 0 18 -7 20 -60 20 -56 0 -60 1 -60
24 0 25 28 36 96 36 30 0 34 3 34 25 0 14 -3 24 -7 23 -5 -1 -46 -4 -93 -7z"/>
<path d="M1320 555 l0 -135 85 0 85 0 0 30 c0 30 -1 30 -55 30 l-55 0 0 105 0
105 -30 0 -30 0 0 -135z"/>
<path d="M997 673 c-4 -3 -7 -26 -7 -50 l0 -43 -40 0 -40 0 0 45 c0 41 -2 45
-24 45 -22 0 -25 -5 -31 -59 -4 -32 -4 -84 0 -115 7 -50 10 -56 31 -56 22 0
24 4 24 50 l0 50 40 0 40 0 0 -50 c0 -27 3 -50 8 -50 4 0 16 -3 27 -6 19 -5
20 0 20 120 0 121 -1 126 -21 126 -11 0 -24 -3 -27 -7z"/>
<path d="M920 372 c0 -30 157 -114 269 -143 107 -29 296 -28 404 0 82 21 218
87 225 109 3 9 -39 12 -185 12 -175 0 -420 10 -625 26 -57 4 -88 3 -88 -4z"/>
</g>
</svg>
