<?xml version="1.0" standalone="no"?>
<!DOCTYPE svg PUBLIC "-//W3C//DTD SVG 20010904//EN"
 "http://www.w3.org/TR/2001/REC-SVG-20010904/DTD/svg10.dtd">
<svg version="1.0" xmlns="http://www.w3.org/2000/svg"
 width="276.000000pt" height="110.000000pt" viewBox="0 0 276.000000 110.000000"
 preserveAspectRatio="xMidYMid meet">

<g transform="translate(0.000000,110.000000) scale(0.100000,-0.100000)"
fill="#000000" stroke="none">
<path d="M136 770 c-27 -11 -62 -32 -78 -46 -23 -23 -28 -36 -28 -77 0 -42 5
-54 33 -82 37 -37 73 -47 255 -69 114 -14 142 -25 142 -56 0 -39 -49 -61 -139
-61 -111 -1 -202 41 -224 104 -4 10 -17 17 -32 17 -25 0 -25 -1 -25 -85 l0
-85 29 0 c16 0 31 6 34 14 5 12 16 11 67 -5 87 -27 155 -33 224 -20 149 28
208 99 167 199 -25 59 -107 89 -301 107 -94 9 -120 19 -120 45 0 38 46 55 145
55 105 0 168 -24 199 -75 13 -22 24 -30 39 -28 20 3 22 10 25 76 l3 72 -30 0
c-16 0 -31 -5 -33 -12 -3 -8 -23 -5 -68 10 -84 29 -213 29 -284 2z"/>
<path d="M850 770 c-112 -41 -172 -118 -172 -220 0 -77 30 -134 96 -177 167
-113 435 -71 510 79 65 130 5 263 -142 318 -72 27 -215 27 -292 0z m235 -63
c139 -79 115 -283 -38 -326 -89 -25 -174 10 -215 89 -46 89 -13 197 73 240 55
27 129 26 180 -3z"/>
<path d="M1380 741 c0 -27 3 -30 38 -33 l37 -3 0 -155 0 -155 -37 -3 c-33 -3
-38 -7 -38 -28 l0 -24 125 0 125 0 0 25 c0 23 -4 25 -40 25 -24 0 -43 5 -46
13 -2 7 -3 63 -2 124 l3 111 165 -149 c158 -143 167 -149 207 -149 l43 0 0
185 0 185 40 0 c38 0 40 2 40 30 l0 30 -125 0 -125 0 0 -30 c0 -28 2 -30 40
-30 25 0 43 -5 46 -13 3 -8 3 -54 2 -104 l-3 -90 -145 133 -145 134 -102 0
-103 0 0 -29z"/>
<path d="M2092 743 c3 -24 8 -29 44 -33 42 -6 50 -13 163 -145 48 -57 51 -63
51 -117 l0 -58 -40 0 c-36 0 -40 -2 -40 -25 l0 -25 150 0 150 0 0 24 c0 22 -5
25 -42 28 l-43 3 -3 51 -3 52 92 106 c87 101 94 106 130 106 37 0 39 2 39 30
l0 31 -117 -3 -118 -3 0 -25 c0 -18 6 -26 23 -28 13 -2 22 -7 20 -11 -7 -15
-93 -120 -100 -120 -4 -1 -31 27 -59 61 -51 61 -51 63 -28 68 17 4 24 13 24
30 l0 25 -148 3 -148 3 3 -28z"/>
</g>
</svg>
