<?xml version="1.0" standalone="no"?>
<!DOCTYPE svg PUBLIC "-//W3C//DTD SVG 20010904//EN"
 "http://www.w3.org/TR/2001/REC-SVG-20010904/DTD/svg10.dtd">
<svg version="1.0" xmlns="http://www.w3.org/2000/svg"
 width="276.000000pt" height="110.000000pt" viewBox="0 0 276.000000 110.000000"
 preserveAspectRatio="xMidYMid meet">

<g transform="translate(0.000000,110.000000) scale(0.100000,-0.100000)"
fill="#000000" stroke="none">
<path d="M668 1084 c-166 -40 -277 -155 -295 -303 l-6 -51 144 0 145 0 19 43
c28 59 74 87 144 87 98 0 151 -57 121 -129 -16 -38 -51 -53 -142 -59 l-78 -5
0 -98 0 -99 55 0 c102 0 155 -39 155 -115 0 -97 -103 -144 -205 -95 -47 23
-79 72 -90 138 l-7 42 -149 0 -149 0 0 -42 c1 -59 16 -122 46 -182 45 -93 117
-155 221 -192 59 -20 86 -24 203 -24 219 0 336 46 421 164 l29 39 0 -91 0 -92
150 0 150 0 1 323 1 322 80 -322 80 -323 132 0 132 0 81 328 82 327 0 -327 1
-328 150 0 150 0 0 530 0 530 -222 -2 -223 -3 -74 -305 c-54 -220 -76 -299
-83 -285 -4 11 -35 133 -68 270 -33 138 -65 267 -71 288 l-10 37 -219 0 -220
0 0 -107 0 -108 -22 44 c-62 125 -206 192 -413 190 -49 0 -116 -7 -147 -15z
m582 -501 l0 -116 -29 39 c-15 22 -40 48 -56 58 l-27 18 34 23 c18 12 42 39
53 59 11 20 21 36 22 36 2 0 3 -52 3 -117z"/>
</g>
</svg>
