<?xml version="1.0" standalone="no"?>
<!DOCTYPE svg PUBLIC "-//W3C//DTD SVG 20010904//EN"
 "http://www.w3.org/TR/2001/REC-SVG-20010904/DTD/svg10.dtd">
<svg version="1.0" xmlns="http://www.w3.org/2000/svg"
 width="647.000000pt" height="647.000000pt" viewBox="0 0 647.000000 647.000000"
 preserveAspectRatio="xMidYMid meet">
<metadata>
Created by potrace 1.14, written by Peter Selinger 2001-2017
</metadata>
<g transform="translate(0.000000,647.000000) scale(0.100000,-0.100000)"
fill="#000000" stroke="none">
<path d="M3726 6403 c-1 -1 -18 -3 -39 -5 -20 -1 -37 -5 -37 -8 0 -4 -10 -6
-22 -5 -27 2 -149 -48 -193 -78 -45 -32 -50 -36 -128 -113 -63 -61 -167 -136
-167 -119 0 3 -9 1 -21 -6 -12 -6 -38 -12 -58 -14 -194 -20 -230 -24 -316 -40
-22 -4 -50 -8 -62 -8 -13 -1 -23 -4 -23 -7 0 -3 -10 -6 -22 -7 -13 -1 -34 -4
-48 -8 -14 -3 -34 -8 -45 -10 -11 -2 -35 -8 -53 -13 -18 -6 -33 -11 -35 -11
-1 0 -9 -2 -17 -5 -35 -12 -106 -29 -112 -28 -5 1 -8 -2 -8 -6 0 -4 -12 -9
-27 -10 -15 -1 -29 -5 -32 -10 -3 -4 -31 -15 -61 -26 -30 -10 -75 -28 -100
-39 -25 -12 -47 -21 -50 -22 -13 -2 -167 -82 -178 -93 -8 -7 -18 -10 -23 -7
-5 4 -9 1 -9 -4 0 -6 -5 -11 -10 -11 -6 0 -23 -8 -38 -18 -15 -11 -70 -47
-122 -82 -52 -35 -97 -66 -100 -69 -3 -3 -23 -19 -45 -35 -22 -16 -47 -37 -56
-45 -9 -9 -40 -36 -70 -61 -76 -64 -243 -232 -318 -320 -35 -41 -68 -76 -73
-78 -4 -2 -8 -9 -8 -16 0 -6 -8 -19 -17 -28 -10 -9 -23 -23 -29 -30 -24 -30
-164 -238 -164 -244 0 -3 -14 -26 -30 -51 -17 -24 -28 -49 -25 -54 4 -5 2 -9
-3 -9 -10 0 -62 -99 -62 -118 0 -6 -4 -12 -10 -12 -5 0 -10 -4 -10 -9 0 -5 -8
-26 -17 -47 -9 -22 -16 -42 -15 -46 1 -5 -2 -8 -6 -8 -5 0 -9 -6 -9 -12 -1 -7
-18 -58 -38 -113 -36 -97 -53 -155 -81 -267 -6 -25 -15 -67 -18 -83 -1 -5 -5
-16 -9 -22 -5 -8 -3 -13 4 -13 8 0 8 -4 1 -12 -11 -15 -21 -77 -40 -263 -5
-44 -8 -98 -7 -120 1 -22 -3 -43 -9 -47 -7 -5 -6 -8 3 -8 11 0 11 -3 1 -15 -9
-10 -9 -15 -1 -15 6 0 11 -5 11 -11 0 -5 -6 -7 -12 -3 -9 5 -9 2 1 -9 9 -12
10 -17 2 -17 -7 0 -9 -4 -6 -10 3 -5 8 -62 10 -127 3 -65 7 -143 10 -173 3
-30 7 -79 9 -108 1 -29 6 -55 9 -59 4 -3 7 -24 7 -45 0 -21 5 -38 11 -38 5 0
8 -4 5 -9 -3 -5 -1 -31 5 -57 5 -27 11 -59 12 -71 0 -13 5 -23 10 -23 4 0 6
-4 3 -8 -3 -4 0 -26 5 -48 6 -21 11 -45 11 -51 1 -7 4 -13 7 -13 4 0 8 -12 9
-26 1 -15 7 -33 12 -39 6 -7 10 -17 9 -21 -1 -5 1 -18 5 -29 17 -43 19 -51 22
-66 2 -9 13 -38 25 -65 12 -27 21 -55 20 -61 -1 -7 3 -13 9 -13 5 0 10 -5 10
-11 0 -19 83 -189 92 -189 5 0 7 -4 4 -9 -3 -5 8 -28 24 -52 16 -24 30 -50 30
-56 0 -7 5 -13 10 -13 6 0 10 -6 10 -13 0 -8 9 -24 20 -37 11 -13 20 -26 20
-30 0 -4 23 -37 50 -74 28 -37 50 -71 50 -76 0 -4 3 -10 8 -12 4 -2 20 -19 35
-38 16 -19 43 -53 60 -75 43 -53 322 -331 377 -375 23 -19 47 -34 52 -33 4 2
8 -1 8 -6 0 -9 21 -19 60 -29 134 -34 300 72 303 193 0 19 4 32 8 29 4 -2 6 7
3 21 -2 14 -6 36 -8 49 -5 30 -45 109 -60 118 -51 33 -366 346 -366 365 0 2
-20 29 -45 57 -25 29 -45 58 -45 64 0 6 -4 12 -9 14 -12 4 -127 190 -124 200
2 4 -1 8 -6 8 -6 0 -93 161 -97 180 0 3 -9 25 -20 50 -10 25 -18 48 -16 53 1
4 -3 7 -8 7 -6 0 -10 8 -10 18 0 10 -3 22 -8 26 -4 4 -8 12 -8 17 -1 5 -2 10
-4 12 -1 1 -3 10 -5 20 -2 10 -7 26 -11 35 -4 9 -8 22 -10 27 -1 6 -7 24 -12
42 -6 17 -8 34 -4 37 3 3 0 6 -6 6 -6 0 -11 8 -11 18 0 16 -7 54 -11 60 -3 3
-5 12 -14 65 -4 27 -9 59 -12 70 -15 75 -27 197 -28 274 -1 40 -4 73 -8 73 -4
0 -3 12 3 27 5 14 6 29 2 32 -12 9 -15 33 -3 26 5 -3 10 -2 10 4 0 5 -5 13
-10 16 -6 4 -7 13 -2 23 5 9 10 37 11 62 4 87 22 228 38 294 3 11 5 31 6 44 1
12 4 22 7 22 3 0 7 12 8 26 1 15 7 33 12 39 6 7 10 17 9 21 -3 14 30 131 50
179 26 61 46 110 47 115 0 3 9 23 19 45 10 22 19 42 20 45 12 33 43 89 48 85
4 -3 5 -2 3 1 -7 10 45 104 57 104 6 0 7 3 4 6 -4 4 2 19 13 34 11 16 20 33
20 39 0 6 5 11 12 11 6 0 9 3 5 6 -3 3 5 18 18 31 13 14 29 37 36 52 21 40 46
71 53 64 3 -3 6 1 6 10 0 8 15 32 34 51 18 20 31 36 28 36 -3 0 9 14 27 30 17
17 31 32 31 35 0 4 168 171 192 190 7 6 36 29 64 53 83 68 262 183 359 231 50
25 93 49 97 55 4 6 10 7 14 3 4 -4 16 0 26 10 10 9 18 13 18 10 0 -3 25 5 55
18 30 14 55 22 55 19 0 -4 7 0 16 7 9 7 21 14 28 15 6 1 33 9 60 18 27 8 54
12 59 9 6 -3 7 -1 3 5 -4 7 0 12 11 13 18 1 28 3 68 13 78 21 147 36 180 41
11 1 20 3 20 5 0 5 93 13 150 13 69 0 122 -7 132 -16 3 -4 17 -7 30 -7 12 0
23 -4 23 -8 0 -4 15 -14 34 -20 19 -7 72 -48 118 -92 46 -44 88 -79 94 -80 7
0 15 -7 18 -16 3 -8 10 -13 15 -10 5 4 16 0 24 -9 17 -16 79 -42 117 -49 14
-3 25 -5 25 -7 0 -3 47 -8 87 -10 23 -1 35 -5 31 -12 -4 -6 -1 -7 7 -2 7 4 27
9 44 11 105 11 148 21 157 35 4 6 12 8 19 4 7 -4 15 -4 19 1 3 5 26 19 51 31
25 12 59 34 75 48 17 14 42 36 56 48 30 26 99 115 99 128 0 5 -92 9 -220 9
-207 0 -221 1 -240 20 -11 11 -20 23 -21 28 0 4 -24 47 -52 95 -79 135 -86
150 -76 167 44 71 64 104 99 166 62 110 47 105 263 102 120 -2 187 1 187 7 0
7 3 7 8 0 9 -13 44 -13 49 1 2 6 -8 23 -21 39 -14 16 -23 31 -21 33 6 6 -119
122 -131 122 -3 0 -18 8 -32 19 -15 10 -44 24 -64 31 -20 8 -35 16 -33 20 2 3
-6 7 -18 8 -12 1 -35 3 -52 6 -16 2 -34 4 -38 5 -5 1 -6 4 -4 9 4 6 -120 11
-127 5z m-2076 -5075 c0 -6 3 -8 7 -5 6 7 52 -37 54 -51 0 -4 2 -16 4 -26 6
-30 -25 -95 -48 -102 -12 -4 -24 -6 -26 -5 -2 2 -7 -2 -11 -8 -4 -8 -16 -8
-41 0 -44 15 -65 34 -75 67 -7 26 -8 36 -5 65 1 17 29 47 56 64 26 15 85 16
85 1z"/>
<path d="M4760 5472 c-24 -8 -56 -26 -69 -39 -14 -12 -29 -23 -32 -23 -16 0
-60 -112 -61 -157 -2 -57 11 -123 23 -123 5 0 9 -6 9 -13 0 -16 40 -59 112
-121 84 -71 168 -156 168 -168 0 -6 3 -9 6 -5 8 8 134 -138 134 -156 0 -4 5
-5 10 -2 6 3 10 1 10 -4 0 -10 52 -86 84 -123 8 -9 20 -27 27 -40 6 -13 15
-25 18 -28 4 -3 12 -16 18 -30 7 -14 24 -45 38 -70 34 -59 69 -124 70 -130 0
-3 11 -24 23 -47 12 -23 22 -49 22 -58 0 -8 4 -15 8 -15 8 0 38 -91 33 -99 -1
-2 1 -7 6 -10 10 -8 33 -72 33 -94 0 -9 5 -17 12 -17 6 0 9 -3 5 -6 -3 -3 2
-29 10 -57 9 -29 17 -61 18 -72 1 -11 5 -27 8 -35 4 -8 9 -31 11 -50 3 -19 5
-35 6 -35 2 0 9 -58 11 -92 1 -13 4 -21 8 -19 3 2 7 -24 8 -57 1 -34 4 -116 6
-182 3 -66 0 -125 -5 -132 -6 -7 -5 -14 2 -18 6 -3 8 -10 6 -13 -2 -4 -7 -39
-10 -78 -3 -38 -8 -87 -12 -109 -4 -22 -7 -52 -7 -67 0 -16 -3 -28 -7 -28 -3
0 -7 -10 -8 -22 -2 -32 -10 -82 -12 -85 -4 -5 -6 -15 -15 -60 -4 -24 -11 -41
-14 -38 -4 2 -8 -6 -8 -18 -1 -21 -9 -59 -13 -64 -2 -2 -3 -6 -4 -10 -9 -35
-31 -99 -36 -103 -3 -3 -11 -23 -19 -45 -27 -81 -97 -232 -111 -240 -6 -4 -9
-9 -6 -13 2 -4 -9 -29 -25 -57 -15 -27 -38 -69 -50 -92 -11 -24 -25 -43 -29
-43 -5 0 -12 -10 -16 -22 -4 -13 -16 -35 -28 -49 -11 -14 -28 -36 -36 -49 -8
-12 -22 -30 -30 -41 -8 -10 -28 -35 -45 -56 -34 -42 -116 -133 -161 -178 -86
-87 -244 -215 -264 -215 -6 0 -8 -4 -5 -10 3 -5 0 -10 -9 -10 -8 0 -27 -11
-43 -24 -32 -27 -94 -61 -105 -58 -5 1 -8 -2 -8 -6 0 -5 -39 -28 -87 -53 -49
-24 -90 -46 -93 -49 -3 -3 -12 -6 -20 -8 -8 -2 -30 -10 -49 -19 -18 -8 -40
-16 -48 -17 -8 -1 -19 -9 -24 -17 -5 -8 -9 -11 -9 -7 0 4 -26 -2 -57 -13 -87
-32 -87 -32 -98 -35 -28 -8 -61 -16 -72 -16 -7 -1 -13 -5 -13 -9 0 -4 -8 -8
-17 -8 -10 0 -38 -5 -63 -11 -25 -7 -56 -14 -70 -17 -44 -9 -55 -11 -55 -13 0
-1 -9 -3 -20 -5 -11 -1 -38 -6 -60 -10 -57 -11 -133 -12 -185 -3 -60 11 -68
13 -76 21 -4 4 -14 7 -21 7 -21 0 -120 72 -192 139 -35 33 -72 63 -82 66 -11
4 -19 11 -19 16 0 6 -4 7 -10 4 -5 -3 -10 -1 -10 5 0 6 -4 8 -10 5 -5 -3 -10
-1 -10 4 0 6 -3 10 -7 9 -5 0 -15 2 -23 5 -50 22 -102 35 -124 33 -14 -2 -26
1 -26 5 0 7 -54 6 -197 -3 -13 -1 -23 -6 -23 -10 0 -5 -6 -8 -13 -7 -19 3
-142 -50 -175 -76 -35 -27 -131 -124 -155 -157 -26 -35 -26 -38 -9 -47 10 -6
24 -6 32 -1 9 5 19 5 26 -1 8 -7 14 -6 19 1 3 6 12 7 18 3 17 -10 47 -11 53
-1 3 4 13 5 22 0 21 -9 43 -9 59 1 6 4 15 3 18 -3 5 -8 11 -7 21 1 11 9 17 9
28 0 10 -9 16 -9 21 -1 5 8 10 8 20 0 9 -8 15 -8 20 0 4 7 13 7 27 -1 16 -8
19 -8 13 1 -6 9 -2 9 14 1 11 -7 21 -9 21 -6 0 3 6 0 14 -7 8 -7 12 -16 10
-19 -2 -4 3 -12 11 -19 8 -7 12 -16 9 -21 -3 -5 0 -9 5 -9 6 0 11 -7 11 -15 0
-8 3 -15 8 -15 4 0 13 -12 19 -28 7 -15 28 -51 47 -80 19 -29 33 -59 32 -65
-4 -24 -40 -97 -48 -97 -4 0 -8 -5 -8 -10 0 -6 -15 -35 -34 -65 -19 -29 -32
-56 -29 -59 4 -3 1 -6 -5 -6 -7 0 -12 -6 -12 -13 0 -8 -8 -21 -17 -29 -15 -12
-57 -14 -236 -14 -201 1 -217 0 -217 -16 0 -10 5 -18 12 -18 6 0 9 -3 5 -6 -3
-3 4 -17 16 -31 34 -39 97 -103 103 -103 3 0 14 -9 26 -19 23 -22 143 -82 173
-87 11 -1 34 -7 52 -12 17 -6 34 -7 38 -4 3 4 10 0 15 -8 6 -10 10 -11 10 -3
0 7 7 10 16 6 12 -5 13 -7 2 -14 -9 -6 -6 -8 9 -6 12 0 19 5 16 10 -3 5 4 6
16 2 13 -4 21 -2 21 5 0 6 5 8 10 5 6 -4 7 -12 3 -18 -3 -7 3 -3 15 7 12 11
22 17 22 14 0 -5 33 1 98 16 13 3 49 17 80 31 31 14 57 25 57 24 0 -5 62 51
138 124 69 67 133 113 172 124 56 15 100 23 155 27 76 7 158 16 174 19 6 1 14
7 18 12 5 6 8 5 8 -3 0 -10 5 -10 21 -1 12 6 30 9 40 6 10 -3 19 -1 19 5 0 6
6 8 14 5 8 -3 17 -3 21 1 3 4 18 8 33 9 15 1 41 6 59 11 17 6 34 8 37 4 3 -3
6 -1 6 4 0 6 10 10 23 11 27 1 45 6 122 32 32 11 63 17 67 15 4 -3 8 -1 8 4 0
9 55 26 73 23 4 0 7 3 7 8 0 5 12 12 28 16 29 7 214 86 222 95 3 3 32 18 65
34 52 26 90 46 182 103 13 7 25 13 29 13 3 -1 14 9 25 21 10 12 19 19 19 15 0
-4 13 3 29 16 15 12 38 30 51 38 12 8 28 20 34 25 6 6 25 19 41 29 17 11 36
28 43 38 7 10 18 18 23 18 5 0 27 18 49 40 22 22 42 40 45 40 22 0 330 337
385 420 8 13 23 32 33 42 9 10 14 18 10 18 -3 0 3 10 14 23 26 29 123 185 123
197 0 6 5 10 10 10 6 0 10 9 10 20 0 11 4 20 9 20 5 0 14 15 22 33 7 17 22 46
33 62 12 17 19 30 17 30 -3 0 12 35 32 77 20 43 37 86 39 95 2 10 5 20 8 23
12 10 48 118 43 124 -4 3 -2 6 4 6 9 0 26 52 27 85 1 6 4 12 7 15 7 6 49 170
53 204 1 12 6 27 10 34 4 7 5 16 1 21 -3 5 -1 12 3 15 5 3 8 17 7 31 -2 14 0
25 4 25 5 0 7 17 7 38 -1 20 2 42 6 48 18 26 33 574 15 574 -5 0 -4 7 3 15 7
8 9 15 4 15 -5 0 -10 17 -10 37 -4 111 -4 114 -16 107 -10 -6 -10 -5 -1 8 7 8
11 17 8 20 -4 4 -12 49 -20 118 -2 14 -4 25 -5 25 -3 0 -12 41 -14 71 -1 17
-5 35 -8 40 -7 12 -21 65 -22 84 -1 8 -4 20 -8 26 -4 6 -10 26 -13 44 -3 18
-10 41 -15 51 -6 10 -10 27 -10 38 0 12 -4 21 -10 21 -5 0 -10 11 -10 24 0 14
-5 28 -10 31 -6 4 -10 12 -9 18 1 7 -4 26 -11 42 -7 17 -14 32 -15 35 -7 21
-25 60 -73 160 -30 63 -55 118 -54 123 1 4 -2 7 -7 7 -5 0 -13 11 -18 23 -10
30 -142 242 -166 268 -10 10 -15 19 -12 19 3 0 -4 10 -15 23 -11 12 -34 40
-51 62 -57 75 -114 140 -196 224 -46 47 -83 89 -83 93 0 4 -3 7 -7 6 -5 -2
-19 9 -33 22 -53 51 -145 124 -188 148 -35 20 -130 22 -182 4z m116 -131 c7
-1 25 -15 41 -31 23 -24 30 -39 29 -68 -2 -55 -39 -101 -86 -107 -3 0 -11 -4
-17 -8 -8 -5 -13 -4 -13 2 0 6 -8 11 -18 11 -22 0 -57 35 -70 70 -22 63 43
143 108 134 8 -1 20 -3 26 -3z"/>
<path d="M2627 4349 c-9 -6 -25 -12 -35 -14 -113 -25 -200 -97 -278 -228 -19
-32 -34 -65 -34 -73 0 -7 -4 -14 -8 -14 -8 0 -38 -55 -30 -55 1 0 -7 -13 -19
-29 -13 -16 -23 -34 -23 -41 0 -7 -7 -18 -15 -25 -8 -7 -13 -16 -10 -20 3 -4
-2 -13 -10 -20 -8 -7 -15 -16 -15 -20 0 -4 -17 -39 -39 -78 -21 -38 -36 -74
-32 -79 11 -14 49 -32 55 -26 11 11 66 10 66 -1 0 -6 4 -4 10 4 5 8 12 11 16
7 4 -4 14 -1 22 6 13 10 14 9 7 -2 -6 -11 -3 -13 16 -8 13 3 31 2 39 -3 8 -5
19 -6 25 -2 17 10 79 9 94 -2 12 -9 13 -8 7 3 -6 9 -5 12 5 9 8 -3 24 -1 37 3
13 5 21 5 18 0 -3 -5 22 -8 57 -7 34 2 68 -2 76 -8 11 -8 13 -8 7 2 -4 7 -2
12 6 12 8 0 20 -6 27 -12 8 -7 11 -8 8 -2 -7 13 91 13 112 0 10 -6 12 -5 7 2
-10 16 16 15 33 0 11 -11 13 -10 7 0 -8 13 19 13 40 -1 6 -3 14 -3 18 0 11 12
80 10 95 -1 12 -9 13 -8 7 3 -6 9 -5 12 5 9 8 -3 24 -1 37 3 17 6 21 6 16 -2
-5 -8 0 -10 17 -6 13 3 31 2 39 -3 8 -5 19 -6 25 -2 17 10 79 9 94 -2 12 -9
13 -8 7 3 -6 9 -5 12 5 9 8 -3 24 -1 37 3 17 6 21 6 16 -2 -5 -8 0 -10 17 -6
13 3 31 2 39 -3 8 -5 18 -6 24 -3 16 11 76 12 82 2 3 -5 11 -6 17 -2 18 11
100 10 116 -1 11 -8 13 -8 7 2 -4 7 -2 12 6 12 8 0 20 -6 27 -12 8 -7 11 -8 8
-2 -7 13 91 13 112 0 10 -6 12 -5 7 2 -10 16 16 15 33 0 11 -11 13 -10 7 0 -8
13 19 13 40 -1 6 -3 14 -3 18 0 11 12 80 10 95 -1 12 -9 13 -8 7 3 -6 9 -5 12
5 9 8 -3 24 -1 37 3 17 7 21 6 16 -3 -5 -8 0 -9 16 -5 13 3 31 2 41 -4 10 -5
20 -6 23 -1 6 10 88 8 105 -3 9 -5 12 -4 8 1 -3 6 16 10 48 10 32 0 51 -4 48
-10 -4 -5 -1 -6 8 0 16 10 20 11 49 13 26 1 25 21 -1 68 -41 72 -73 138 -71
146 1 4 -5 7 -14 7 -8 0 -12 5 -9 10 3 6 -3 23 -14 39 -11 15 -18 31 -14 35 3
3 1 6 -5 6 -6 0 -14 10 -18 23 -4 12 -5 22 -3 22 2 0 -5 9 -14 20 -9 11 -17
24 -16 29 0 5 -3 12 -8 15 -5 3 -24 32 -43 65 -41 73 -123 158 -175 181 -22 9
-49 21 -60 26 -45 19 -231 31 -252 15 -7 -5 -13 -5 -13 0 0 8 -70 11 -85 4
-14 -6 -31 -5 -42 2 -6 5 -14 5 -18 -2 -4 -7 -12 -7 -26 0 -14 8 -19 7 -19 -1
0 -9 -3 -9 -14 0 -10 8 -16 9 -21 1 -4 -7 -12 -7 -25 0 -13 7 -21 7 -25 0 -4
-6 -11 -7 -17 -4 -13 8 -102 9 -115 1 -5 -3 -15 -2 -22 3 -8 4 -27 4 -42 0
-18 -5 -29 -5 -29 1 0 6 -6 7 -12 2 -17 -10 -39 -10 -60 0 -12 5 -18 4 -18 -4
0 -9 -3 -9 -14 0 -10 8 -16 9 -21 1 -4 -7 -12 -7 -26 0 -14 8 -19 7 -19 -1 0
-9 -3 -9 -14 0 -10 8 -16 9 -21 1 -3 -6 -13 -7 -23 -2 -21 9 -43 9 -59 -1 -7
-5 -13 -5 -13 0 0 9 -148 8 -157 -1 -3 -3 -11 -2 -17 3 -7 6 -18 6 -29 0z"/>
<path d="M1765 3791 c-3 -2 -16 -6 -28 -8 -32 -5 -69 -47 -69 -78 0 -31 36
-73 72 -81 33 -8 148 -9 184 -1 31 7 78 45 71 58 -3 4 -1 11 5 14 8 5 8 11 0
20 -7 8 -9 19 -6 24 8 12 -70 54 -84 46 -5 -3 -12 -1 -15 5 -7 11 -120 12
-130 1z"/>
<path d="M4548 3791 c-16 -5 -28 -7 -28 -5 0 5 -22 -12 -49 -39 -31 -30 -16
-84 31 -112 26 -15 53 -19 121 -20 48 0 87 3 87 7 0 5 7 8 16 8 9 0 28 12 41
27 19 20 24 33 19 56 -3 16 -6 33 -6 37 0 28 -176 59 -232 41z"/>
<path d="M2141 3568 c-13 -4 -27 -6 -31 -3 -5 3 -11 1 -15 -5 -3 -5 -24 -14
-45 -20 -22 -6 -40 -15 -40 -20 0 -6 -4 -10 -10 -10 -11 0 -41 -24 -77 -60
-25 -27 -79 -129 -89 -170 -10 -40 -11 -560 -2 -566 5 -3 4 -12 -3 -20 -6 -8
-7 -14 -2 -14 5 0 10 -6 10 -14 0 -24 34 -106 44 -106 5 0 9 -6 9 -13 0 -8 23
-35 50 -61 28 -26 50 -45 50 -41 0 3 14 -3 30 -15 17 -12 37 -19 45 -16 7 2
15 1 17 -4 2 -5 21 -10 43 -12 22 -2 43 -7 47 -13 5 -6 8 -5 8 4 0 11 3 11 15
1 11 -9 15 -9 15 -1 0 8 6 9 18 3 19 -9 54 -8 71 2 6 4 11 3 11 -2 0 -5 7 -9
15 -9 8 0 15 4 15 9 0 5 8 5 17 -1 10 -5 26 -5 40 0 13 5 25 4 28 -1 4 -7 13
-6 26 0 14 8 19 7 19 -1 0 -8 4 -8 15 1 11 9 15 9 15 1 0 -9 5 -9 20 -1 13 7
20 7 20 1 0 -7 9 -7 25 -1 17 7 25 6 25 -1 0 -8 5 -7 15 1 10 8 15 9 15 1 0
-7 8 -8 24 -1 15 5 27 5 35 -3 6 -6 11 -7 11 -1 0 5 9 10 20 10 11 0 20 -4 20
-9 0 -5 6 -4 14 2 8 7 16 8 19 4 6 -10 70 -8 86 2 6 3 11 2 11 -4 0 -7 8 -7
25 -1 17 7 25 6 25 -1 0 -8 5 -7 15 1 10 8 15 9 15 1 0 -7 8 -8 24 -1 15 5 27
5 35 -3 6 -6 11 -7 11 -1 0 5 11 9 25 9 14 0 25 -4 25 -9 0 -5 6 -3 13 3 8 6
17 8 21 4 10 -10 46 -11 46 -1 0 5 7 5 17 0 9 -6 29 -6 45 -2 18 6 28 5 28 -2
0 -6 6 -6 15 2 10 8 15 9 15 1 0 -7 8 -8 24 -1 15 5 27 5 35 -3 6 -6 11 -7 11
-1 0 5 9 10 20 10 11 0 20 -4 20 -9 0 -5 6 -4 14 2 8 7 16 8 19 4 6 -10 70 -8
86 2 6 3 11 2 11 -4 0 -7 8 -7 23 -2 14 5 30 5 40 0 9 -6 17 -6 17 -2 0 4 11
8 25 8 14 0 25 -4 25 -9 0 -5 7 -3 15 4 12 10 15 10 15 0 0 -10 3 -10 15 0 12
10 15 10 15 0 0 -10 3 -10 15 0 12 10 15 10 15 0 0 -10 3 -10 15 0 11 9 15 9
15 1 0 -8 6 -9 18 -2 11 6 24 6 35 0 9 -6 17 -6 17 -2 0 5 9 9 20 9 11 0 20
-3 20 -6 0 -3 9 -6 20 -6 11 0 20 3 20 6 0 3 9 6 20 6 11 0 20 -4 20 -9 0 -5
7 -4 15 3 8 7 15 9 15 4 0 -5 11 -9 25 -9 14 0 25 4 25 9 0 5 6 4 13 -3 10 -8
17 -7 25 1 9 9 12 9 12 0 0 -9 5 -10 18 -3 13 7 23 6 30 -1 9 -9 12 -9 12 0 0
9 5 10 18 3 11 -6 24 -6 35 0 9 6 17 6 17 2 0 -4 14 -8 30 -8 17 0 30 4 30 9
0 5 7 3 15 -4 8 -7 15 -8 15 -3 0 5 15 10 33 11 55 2 127 28 127 45 0 5 4 6 8
3 9 -5 82 61 113 101 10 11 20 31 24 44 4 13 13 34 21 47 11 17 12 22 2 22 -8
0 -9 3 -3 8 16 12 17 26 17 301 -1 251 -12 371 -34 371 -4 0 -8 7 -8 16 0 35
-111 157 -155 170 -11 4 -23 11 -26 15 -3 5 -17 10 -32 11 -15 1 -27 7 -27 12
0 5 -3 6 -6 3 -4 -3 -15 -2 -25 3 -12 7 -20 7 -24 0 -4 -6 -13 -7 -23 -1 -22
11 -2101 10 -2131 -1z m44 -181 c37 -12 93 -13 137 -3 10 2 20 1 23 -4 2 -4
22 -4 44 0 25 4 44 3 50 -3 6 -6 11 -7 11 -1 0 10 51 11 68 0 7 -4 12 -3 12 1
0 9 46 10 55 2 3 -3 27 -3 55 1 33 4 50 3 50 -4 0 -7 3 -8 8 -1 4 6 25 10 47
10 22 0 43 -4 47 -10 5 -7 8 -7 8 0 0 11 50 12 68 1 7 -4 12 -4 12 1 0 8 177
9 185 1 3 -3 27 -2 55 2 33 4 50 3 51 -4 0 -7 2 -7 5 -1 5 11 155 12 173 1 6
-4 11 -4 11 1 0 8 177 9 185 1 3 -3 27 -2 55 2 33 4 50 3 51 -4 0 -7 2 -7 5
-1 4 10 160 13 169 3 3 -3 23 -2 45 2 24 4 43 3 49 -3 6 -6 11 -7 11 -2 0 11
133 11 149 0 6 -3 11 -2 11 3 0 5 17 7 38 5 101 -10 117 -9 154 9 22 11 41 25
44 32 9 23 43 26 55 5 7 -15 6 -27 -8 -49 -9 -17 -21 -31 -25 -31 -18 -3 -24
-5 -44 -17 -12 -6 -24 -8 -28 -5 -3 3 -6 2 -6 -4 0 -6 -13 -10 -30 -9 -16 1
-30 0 -30 -4 0 -7 -69 -4 -77 4 -4 3 -13 0 -21 -7 -13 -9 -14 -9 -8 0 5 10 1
11 -16 5 -27 -9 -105 -8 -115 1 -3 4 -13 1 -21 -6 -13 -9 -14 -9 -8 0 5 10 1
11 -16 5 -26 -8 -119 -8 -142 1 -9 4 -18 2 -22 -4 -4 -6 -11 -6 -20 2 -8 6
-14 7 -14 2 0 -5 -13 -10 -30 -10 -16 0 -30 5 -30 11 0 7 -3 7 -8 1 -10 -14
-105 -14 -114 -1 -5 7 -8 7 -8 -2 0 -9 -5 -10 -19 -3 -10 6 -22 7 -25 3 -12
-12 -66 -10 -66 2 0 7 -3 7 -8 1 -10 -14 -105 -14 -114 -1 -5 7 -8 7 -8 -2 0
-9 -5 -10 -19 -3 -10 6 -22 7 -25 3 -12 -12 -66 -10 -66 2 0 7 -3 7 -8 1 -10
-14 -105 -14 -114 -1 -5 7 -8 7 -8 -2 0 -9 -5 -10 -19 -3 -10 6 -22 7 -25 3
-12 -12 -66 -10 -66 2 0 7 -3 7 -8 1 -10 -14 -112 -15 -112 -1 0 7 -3 7 -8 1
-10 -14 -85 -14 -94 -1 -5 7 -11 8 -15 1 -9 -11 -108 -13 -118 -3 -4 4 -18 3
-31 -2 -16 -7 -24 -6 -24 1 0 8 -4 8 -12 2 -7 -5 -31 -8 -53 -6 -49 5 -53 5
-87 0 -16 -3 -28 0 -28 7 0 7 -3 7 -8 1 -8 -12 -52 -15 -52 -4 0 5 -11 5 -23
0 -13 -5 -30 -6 -37 -1 -7 5 -21 7 -31 5 -10 -2 -21 0 -24 6 -4 5 -13 9 -21 9
-8 0 -32 11 -54 25 -43 27 -51 53 -23 81 16 15 18 15 37 -9 12 -15 39 -32 61
-40z m-135 -89 c0 -4 3 -8 8 -7 15 2 52 -14 52 -23 0 -5 5 -6 10 -3 6 3 10 3
10 -2 0 -4 17 -19 37 -33 21 -14 82 -69 135 -122 87 -86 97 -99 89 -120 -5
-13 -14 -22 -20 -20 -6 1 -11 -2 -11 -7 0 -10 -37 -26 -71 -30 -5 0 -7 -6 -3
-12 5 -8 2 -9 -11 -2 -10 6 -26 8 -35 6 -10 -3 -28 1 -40 7 -16 8 -20 9 -16 1
10 -15 -122 35 -156 59 -15 11 -29 20 -32 20 -13 0 -69 64 -81 93 -24 57 -6
129 45 178 24 24 90 36 90 17z m2448 -20 c33 -31 56 -85 53 -128 -3 -40 -29
-100 -43 -100 -6 0 -19 -11 -30 -25 -11 -14 -24 -23 -29 -20 -5 4 -9 2 -9 -2
0 -17 -136 -77 -152 -67 -5 3 -15 0 -23 -6 -9 -8 -32 -10 -62 -6 -72 8 -73 9
-73 19 0 6 -3 7 -6 4 -11 -10 -64 33 -64 52 0 9 38 55 85 102 47 47 85 84 85
82 0 -2 10 6 23 18 31 30 137 101 137 92 0 -4 5 -2 11 4 17 17 69 6 97 -19z
m-1850 -489 c15 5 36 5 47 1 11 -4 25 -3 32 2 7 5 14 5 17 -1 4 -6 16 -7 29
-2 12 5 32 5 45 0 14 -5 22 -5 22 2 0 6 6 6 19 0 10 -6 21 -8 24 -5 8 8 132 8
145 0 6 -3 14 -2 17 4 4 7 11 8 18 2 7 -5 21 -6 32 -2 11 4 30 4 43 -1 14 -5
22 -5 22 2 0 6 6 6 19 0 10 -6 21 -8 24 -5 8 8 132 8 145 0 6 -3 14 -2 17 4 4
7 11 8 18 2 7 -5 21 -6 32 -2 11 4 30 4 43 -1 14 -5 22 -5 22 2 0 6 6 6 19 0
10 -6 21 -8 24 -5 8 8 132 8 145 0 6 -3 14 -2 17 4 4 7 11 8 18 2 7 -5 21 -6
32 -2 11 4 30 4 43 -1 14 -5 22 -5 22 2 0 6 5 7 11 4 16 -10 69 -12 75 -3 3 4
17 0 32 -10 14 -9 27 -16 29 -14 14 11 162 -72 149 -85 -3 -3 3 -14 14 -25 24
-26 39 -88 28 -117 -7 -21 -13 -22 -68 -19 -33 1 -60 1 -60 -2 0 -3 -11 -5
-25 -5 -14 0 -25 4 -25 8 0 5 -5 5 -12 1 -15 -9 -138 -11 -138 -2 0 4 -7 5
-14 2 -22 -9 -146 -10 -146 -2 0 4 -7 5 -14 2 -22 -9 -146 -10 -146 -2 0 4 -7
5 -14 2 -22 -9 -146 -10 -146 -2 0 4 -7 5 -14 2 -22 -9 -146 -10 -146 -2 0 4
-7 5 -14 2 -22 -9 -146 -10 -146 -2 0 4 -7 5 -14 2 -22 -9 -146 -10 -146 -2 0
4 -7 5 -14 2 -22 -9 -146 -10 -146 -2 0 4 -9 4 -20 0 -11 -4 -51 -5 -90 -2
-40 3 -75 1 -80 -4 -6 -6 -10 -6 -10 -1 0 6 -28 9 -66 7 -97 -5 -116 2 -113
41 2 18 5 37 8 42 3 6 6 17 8 25 1 8 9 20 17 26 9 6 16 19 16 29 0 10 3 16 6
13 3 -3 16 4 28 16 34 31 98 63 124 61 12 -1 22 2 22 6 0 4 11 6 24 5 14 -2
30 1 38 5 7 5 14 4 16 0 2 -5 15 -6 30 -2z"/>
<path d="M1886 2325 c3 -182 19 -202 157 -201 48 1 87 -3 87 -8 0 -5 7 -3 15
4 12 10 15 10 15 -1 0 -9 3 -10 8 -4 4 6 22 11 40 12 35 1 81 40 83 71 1 9 3
41 4 70 l3 52 -36 1 c-20 1 -58 1 -84 1 -27 0 -48 3 -48 6 0 4 -15 8 -33 9
-17 1 -45 7 -62 14 -16 7 -33 12 -37 11 -5 -1 -8 3 -8 8 0 6 -7 10 -15 10 -8
0 -15 5 -15 10 0 6 -6 10 -13 10 -8 0 -22 9 -32 20 -10 11 -21 20 -25 20 -4 0
-6 -52 -4 -115z"/>
<path d="M4530 2413 c-11 -12 -26 -23 -34 -23 -7 0 -19 -7 -26 -15 -7 -8 -16
-12 -21 -9 -5 3 -9 0 -9 -5 0 -6 -11 -11 -25 -11 -14 0 -25 -4 -25 -10 0 -5
-14 -8 -30 -6 -17 2 -32 0 -35 -4 -2 -4 -30 -7 -62 -8 -32 0 -63 -1 -70 -1
-20 -2 -40 -29 -38 -53 5 -56 18 -107 26 -102 5 3 9 -1 9 -9 0 -23 42 -35 113
-33 37 1 67 -2 67 -7 0 -4 6 -5 12 0 7 4 33 6 57 6 57 -3 111 20 111 46 0 11
4 22 10 26 5 3 8 21 6 40 -1 19 2 37 8 39 6 2 5 5 -2 5 -7 1 -10 6 -7 12 4 5
8 41 8 78 2 74 -8 84 -43 44z"/>
</g>
</svg>
