<svg id="Layer_1" data-name="Layer 1" xmlns="http://www.w3.org/2000/svg" viewBox="0 0 1100.45 234.33"><defs><style>.cls-1{fill:#fff;}.cls-2{fill:#fbbf24;}.cls-3{fill:#f7a108;}</style></defs><path class="cls-1" d="M378.24,140.9c0,7.27,0,14.54,0,21.8,0,4.28-1.29,7.52-5.92,9.11-17.87,6.15-36,8.23-54.37,3.06-20.9-5.88-35-23.07-36.81-45-.95-11.38-1-22.86,3-33.92,10.55-29.68,37.82-39.44,65.72-36.39,7.64.84,15.18,2.4,22.06,6.12,6.27,3.39,9.3,15,5.47,20.85-2.12,3.25-4.24.89-6.17-.17C360.37,80.44,349,77,336.52,78.47c-17.39,2-29.77,14.28-31.58,31.83-.88,8.51-.86,17.08,2.17,25.41A34.22,34.22,0,0,0,351,156.56c2.66-.95,4.36-2.14,4.19-5.55-.34-6.37-.25-12.78,0-19.16.11-3.24-1.07-4.16-4.18-4-5.27.22-10.57-.11-15.85.12-3.13.14-4.29-1.43-4.9-4.05-2.3-9.82.42-13.38,10.25-13.38s19.39.27,29.07-.09c6.47-.25,8.72,2.89,8.74,8.68C378.25,126.36,378.23,133.63,378.24,140.9Z"/><path class="cls-1" d="M813.92,140.86c0,7.27,0,14.54,0,21.81,0,3.52-.61,7.07-4.11,8.3-24.27,8.51-48.48,11.16-71.56-3.37-13.88-8.74-19.86-22.62-21.54-38.25-2.52-23.54,1.74-45.39,22.62-59.58C760.71,55.25,784,55.9,807.28,65.68c6.2,2.61,9.25,15,5.86,20.68-2,3.4-4.23,1.25-6.1.17a59.26,59.26,0,0,0-30.72-8.48c-20.84.22-35.11,14.59-36.31,36.56-.69,12.61,1.23,24.78,10.77,34.1,10.27,10,22.72,11.42,36.1,7.73,2.6-.72,3.92-2.21,3.82-5.21-.21-6.38-.24-12.79,0-19.17.15-3.75-1.59-4.39-4.78-4.24-4.4.2-8.86-.36-13.21.14-7.36.86-7.15-4.15-7.1-8.76s-.28-9.25,7.12-8.85c11,.59,22,.29,33,.09,5.68-.1,8.08,2.67,8.13,8C814,125.88,813.92,133.37,813.92,140.86Z"/><path class="cls-1" d="M570,122.92c6.06,2.93,9.71,7.7,12.19,13.11,4.92,10.74,9.27,21.75,14,32.58,2.09,4.78.58,7-4.41,7.46-.44,0-.87.12-1.31.17-14.49,1.59-16.53.33-22-13-3.31-8.11-6.64-16.21-10.23-24.19a16.68,16.68,0,0,0-9.74-9.36c-9.32-3.32-13.23-.77-13.23,8.66,0,10.36-.16,20.72.08,31.07.1,4.14-1.27,6.24-5.45,6.42-1.31,0-2.61.41-3.92.49-12.42.78-13.58-.29-13.58-12.4q0-46.62,0-93.23c0-8.28,1.18-9.68,9.58-9.52,14.72.28,29.58-1.57,44.13,1.58,16.45,3.58,23.83,12.09,25.23,27.73,1.23,13.78-5.58,24.42-19.76,30.89C571.24,121.54,571,121.94,570,122.92Zm-34.72-28.3c0,19.18.46,19.6,17.54,16.23,10.76-2.13,15.48-8.53,14.07-19.09-1.37-10.32-9.25-14.61-27.45-12.71-8.93.92-2.09,9.18-4.12,13.61A5.11,5.11,0,0,0,535.25,94.62Z"/><path class="cls-1" d="M656.68,60.43c1.54,0,3.09.1,4.62,0,7.08-.53,10.88,2.24,13.28,9.46,10.48,31.55,21.67,62.87,32.6,94.27.65,1.86,1.4,3.69,2,5.58,1.09,3.67,0,6-4.11,6.37a74.58,74.58,0,0,1-15.16-.13c-3-.35-4.59-2.06-5.46-4.83-1.77-5.64-3.81-11.2-5.47-16.86-1-3.38-2.52-5-6.42-4.93-11.23.27-22.47.21-33.7,0-3.43,0-5.22,1.08-6.14,4.43-1.39,5.06-3.67,9.91-4.7,15-1.15,5.77-4.67,7.44-9.8,7.5-.44,0-.88,0-1.32,0-13.37.49-14.44-.9-10.14-13.27q15.72-45.25,31.46-90.5C642.45,60.32,642.42,60.31,656.68,60.43Zm-17.39,71.26c9.87,0,19.1-.12,28.33.06,3.6.08,4-1.13,3-4.24-3.47-10.12-6.74-20.31-10.14-30.45-1.41-4.2-3-8.36-5-14Z"/><path class="cls-1" d="M444.75,60.47c2.2,0,4.4.06,6.6,0,5.57-.19,8.64,2.34,10.48,7.75,11.12,32.69,22.53,65.27,33.81,97.9,3.11,9,2.29,10.06-7.35,10.29-14,.33-14,.33-18.36-12.75-4.73-14.2-4.73-14.2-20-14.2-7.48,0-15,.29-22.44-.12-4.42-.24-6.29,1.54-7.33,5.47-1.29,4.87-3.27,9.56-4.35,14.46-1.18,5.38-4.63,6.77-9.49,7.09-14.93,1-16.19-.49-11.4-14.21q15.42-44.28,30.84-88.56C430.38,60.3,430.43,60.32,444.75,60.47Zm14.95,71L443.39,82.76c-5.74,17.36-10.86,32.85-16.12,48.74Z"/><path class="cls-2" d="M974.61,128.17c-11.1,5.62-22.72,6.59-34.66,3.53-8.46-2.17-14.76-7.37-17.39-15.68-5.2-16.39-5.15-32.7,7.46-45.79,12.44-12.92,28.5-13.65,44.84-8.93,12.59,3.64,18.69,13.6,21.33,25.55,4.09,18.52,4.09,37.19-.9,55.59-8,29.42-37.24,43.63-65.56,32.09-5.31-2.16-8.25-13.05-4.8-17.55,1.66-2.16,3.43-1.06,5.33-.54,5.71,1.56,11.37,3.19,17.44,3.16,14.93-.06,24-7.09,27.16-21.61a72.43,72.43,0,0,0,.85-8.49l.47-1.07Zm.75-24.72c-.05-6.19-.72-11.38-2.6-16.36C970,79.79,965.87,76.91,958.4,77c-7.31.08-12.53,3.86-14.63,10.89a30.61,30.61,0,0,0-.38,16.87c1.84,7,5.61,10.29,12.92,10.9a29,29,0,0,0,11-1.51C972.91,112.43,977.88,110,975.36,103.45Z"/><path class="cls-2" d="M1067.55,127.66a47.89,47.89,0,0,1-34.55,4.27c-10.36-2.47-16.74-9-19.61-19.22-6.23-22.27,2.2-43.39,20.66-50.63a48.23,48.23,0,0,1,32.37-1c11.13,3.39,17.9,11.41,20.63,22.17,5.62,22.18,6,44.55-2.18,66.22-9.29,24.68-41.12,36.46-64.53,24.53-3.94-2-6.26-13.63-3.43-17.12,1.42-1.75,3-1.1,4.79-.63,5.07,1.36,10,3.12,15.41,3.28C1057.33,160.13,1068.54,148.67,1067.55,127.66Zm-32.9-30.83c0,16.21,8.72,22.33,24.62,17.4,6.15-1.91,10-4.85,8.42-12.18-1.17-5.54-1.18-11.31-3.56-16.63s-6.39-8.09-12.23-8.41C1040.91,76.4,1034.68,83.51,1034.65,96.83Z"/><path class="cls-1" d="M837.71,118.27c0-16.08.13-32.16-.06-48.23-.08-6.11,2.38-9,8.53-8.94,17.61.07,35.23.13,52.85-.06,4.79,0,6,2.24,6.21,6.41.49,10.92-.08,11.62-10.76,11.62-9.47,0-18.94.2-28.4-.1-4.19-.13-5.33,1.36-5.15,5.3.27,6.16.25,12.34,0,18.5-.15,3.76,1.19,4.93,4.91,4.83,8.8-.24,17.62.11,26.42-.15,4.39-.14,6.32,1.15,6.6,5.81.68,11.28.32,11.87-11.06,11.87-7.49,0-15,.18-22.46-.08-3.53-.12-4.51,1.07-4.42,4.48.22,7.7.26,15.42,0,23.11-.13,3.83,1.22,4.88,4.9,4.81,10.79-.21,21.6.3,32.36-.21,7.62-.36,7.38,4.38,7.4,9.36s.19,9.37-7.46,9.12c-17.16-.57-34.35-.14-51.52-.2-7.23,0-8.85-1.71-8.87-9C837.68,150.42,837.71,134.35,837.71,118.27Z"/><path class="cls-3" d="M9.68,135.49a.66.66,0,0,1,.2-.06A1.52,1.52,0,0,0,9.68,135.49Zm-.38,1.22a1.06,1.06,0,0,0,.5.13A.75.75,0,0,1,9.3,136.71Zm32,45.18a3.79,3.79,0,0,0,.34.18,3.79,3.79,0,0,1-.34-.18ZM49.41,73h0c.07-.15.21-.34.17-.45C49.62,72.65,49.48,72.84,49.41,73ZM37.56,65.21a3.88,3.88,0,0,0,1.69,1.54A3.88,3.88,0,0,1,37.56,65.21ZM37.43,65c-.09-.15-.17-.3-.25-.46C37.26,64.67,37.34,64.82,37.43,65ZM84.48,208.19c-.12-.05-.25-.15-.35-.18.1,0,.23.13.35.18Z"/><path class="cls-2" d="M161.5,110c.06-1-.37-1.36-1.27-1.39H153c-7.16,0-14.33-.3-21.45.19-7.84.54-14.21-2.43-20.25-6.79l-.85-.53,0,0-.5-.32h0l-.71-.47h0l-.16,0h0a10.37,10.37,0,0,1-1.22-.56c-1.36-.87-2.86-1.6-3.9.2s.45,2.67,1.81,3.46c5.12,3,10,6.33,15.5,8.63,1.28.93,2.8,0,4.13.53l35.3,0a6.59,6.59,0,0,1-.85.21,6.59,6.59,0,0,0,.85-.21l.86-.26C161.5,111.76,161.43,110.86,161.5,110Z"/><path class="cls-2" d="M164.34,59.52a.26.26,0,0,0,0,.15h0A.77.77,0,0,1,164.34,59.52Z"/><path class="cls-2" d="M155.88,54.35a2.29,2.29,0,0,1,.14-.27h0A2.29,2.29,0,0,0,155.88,54.35Z"/><polygon class="cls-2" points="159.77 145.4 159.77 145.41 159.77 145.4 159.77 145.4"/><path class="cls-2" d="M87.12,109.5h0c-.1,0-.21-.12-.29-.14A2,2,0,0,1,87.12,109.5Z"/><path class="cls-2" d="M116.68,120.81a41.16,41.16,0,0,0-16.32-11.67c-5.77-2.18-8.55-1-11.3,4.56,0,.14,0,.29-.08.43s0,.31-.07.47c0,.75,0,1.51,0,2.27a15.34,15.34,0,0,0,2,4.95l-.49-.14.49.14a30,30,0,0,0,8.71,5,37.51,37.51,0,0,0,13.86,2.28c5.8-1.08,6.76-3.47,3.25-8.13Z"/><path class="cls-2" d="M183.19,161.85l0,0-.9-1.37a4.49,4.49,0,0,0-4.45-.63,1.82,1.82,0,0,1,.48-.72,1.82,1.82,0,0,0-.48.72l-.74.56a2.45,2.45,0,0,0-.77-1.2,2.45,2.45,0,0,1,.77,1.2c-.84.49-1,1.42-1.4,2.19q.72.51,0,1a1.18,1.18,0,0,1-.33-.25,1.18,1.18,0,0,0,.33.25c.94,1.95,2.3,3.33,4.65,2.91,2.07-.37,2.9-1.87,2.8-4.64a3.12,3.12,0,0,1,1.82,1.22A3.12,3.12,0,0,0,183.19,161.85Z"/><path class="cls-2" d="M187.51,168.8h0a2.53,2.53,0,0,0,.12-.23C187.6,168.64,187.55,168.72,187.51,168.8Z"/><path class="cls-2" d="M150.7,12.12a105,105,0,1,0,105,105.05A105,105,0,0,0,150.7,12.12ZM74.86,93.44c-3.72-1-5.82-4-5.53-7,.31-3.27,3.22-6.1,7-6.65,1.63-.23,3.3-.21,5-.3,2.48.11,5-.14,7.35.87,3.18,1.35,5,3.79,5,6.6a7,7,0,0,1-5.18,6.43A24.33,24.33,0,0,1,74.86,93.44Zm38.25,70.06c-.12,2.58-.23,5.11-1.45,7.46a4.63,4.63,0,0,1-4.51,2.79c-2.33-.06-4.67,0-7,0h0c-2.34,0-4.68,0-7,0a4.61,4.61,0,0,1-4.37-2.66,10.79,10.79,0,0,1-1.39-5c-.12-3.54,0-7.09-.07-10.63,0-1,.2-1.63,1.23-.73,6.4,5.58,14,6.89,22.17,6.4C112.57,161.06,113.21,161.56,113.11,163.5Zm50.71-11.76c0,.38.09.75.09,1.13.06,3.89-.12,4.12-4,4.13q-17.89,0-35.78,0h-1.85a46.75,46.75,0,0,1,4.8-6.2c6.16-7.58,5.51-6.76,14.24-6.76,6,0,12.08-.06,18.12,0,1.58,0,2.05-.46,2.07-2s-.38-2.23-2.13-2.21c-7.77.09-15.55.07-23.32,0-3.67,0-6.49,1.65-8.89,4.25a9.22,9.22,0,0,1-2.2,2.25,61.46,61.46,0,0,1-6.46,8.11l-.63.64a.94.94,0,0,1-.62.8h0l-.45.6a.25.25,0,0,1-.21.27l-.07.15-.13-.08a59,59,0,0,1-10.55,0c-10.86.5-21.14-8.47-22.15-19.35a33.24,33.24,0,0,1,0-6.54c-.18-6.07-.21-12.14,0-18.21a13.11,13.11,0,0,1,.48-2.18,22,22,0,0,1,8.78-14c2.16-1.64,4.32-3.17,5.62-5.62,2.63-5.11,5.58-10,8.65-14.86,2.89-5.42,5.69-10.92,10.44-15.05.59-.51,1-1.31,2-1.26h0c.32-1,1.18-1.24,2-1.62l.42-.23a.92.92,0,0,1,.82-.52,23.13,23.13,0,0,1,12.77-3.8c3.53-.12,7.06,0,10.6,0,1.77,0,2.46.63,2.16,2.45-.73,4.35-.69,4.35-5.12,4.36-5.32,0-10.7-.47-15.71,2-5.84,3.12-9.44,8.24-12.43,13.91-.45.86-1.06,1.63-1.59,2.45l-.36.55h0c-.05.13-.11.26-.17.4a1.22,1.22,0,0,1-.61,1h0c-1.66,2.94-3.22,5.93-5,8.79-1.15,1.84-.51,2,1.25,2,2.55-.08,5.1,0,7.66.07,14.1,0,28.2,0,42.3-.11,6,0,5.32.21,5.31,5.29l-.09,25.56ZM198.42,82a1.28,1.28,0,0,1-.41.18l0-.14,0,.14a20.44,20.44,0,0,1-3.84,3.35c-.57,1.47-2.56,1.92-2.7,3.7q-.71,3-1.4,5.9c0,.45,0,.9,0,1.34V136.8q0,12.47,0,24.92a.42.42,0,0,1,0,.43l0,1.83a3.66,3.66,0,0,1-.85,3.09l-.08,0c-.73,1.77-1.48,3.52-3.46,4.28l-1.89,1.2a2,2,0,0,1-.59-.28,2,2,0,0,0,.59.28c-4.39,2.73-11.2.32-13.53-4.82a8.39,8.39,0,0,1-.95-3.45q0-10.35,0-20.71V114.15c0-4.94-.09-9.88-.08-14.82a52,52,0,0,0-.39-7.38.18.18,0,0,1-.08-.28,2.23,2.23,0,0,1-.53-1.49,26,26,0,0,0-6.1-7.14c-6.84-6-10-13.64-9.09-22.8.62-7.85,4.31-14,10.39-18.86a2,2,0,0,1,2.27-.49c.86.45.86,1.33.86,2.18l0,15.36.84,1.84,2.9,2.15h0a.79.79,0,0,1,.81.46l.73.45.15,0,.42.21c2.7,1.54,5.17,3.69,8.6,3.34,2.93-1.7,5.82-3.45,8.78-5.1a5.43,5.43,0,0,0,3.05-5.33c-.1-4.52,0-9,0-13.57,0-.84,0-1.69,1-2.1a2,2,0,0,1,2.07.46C208.89,50.61,210.19,71,198.42,82Z"/><path class="cls-2" d="M166.92,63.47a5.24,5.24,0,0,1-.78,0A5.24,5.24,0,0,0,166.92,63.47Z"/></svg>