<svg id="Layer_1" data-name="Layer 1" xmlns="http://www.w3.org/2000/svg" viewBox="0 0 1100.45 234.33"><defs><style>.cls-1{fill:#f7a108;}.cls-2{fill:#fff;}</style></defs><path class="cls-1" d="M-.21,174.86A.83.83,0,0,1,0,174.8.83.83,0,0,0-.21,174.86Zm-.37,1.22a1.06,1.06,0,0,0,.5.13A.75.75,0,0,1-.58,176.08Zm32,45.18c.12.05.25.15.35.18-.1,0-.23-.13-.35-.18Zm8.1-108.9h0c.06-.16.21-.34.17-.46C39.74,112,39.59,112.2,39.53,112.36Zm-11.85-7.78a4,4,0,0,0,1.69,1.54A4,4,0,0,1,27.68,104.58Zm-.14-.25a5,5,0,0,1-.24-.46A5,5,0,0,0,27.54,104.33ZM74.59,247.55a2.81,2.81,0,0,0-.35-.17,2.81,2.81,0,0,1,.35.17Z"/><path class="cls-2" d="M360.06,140.9c0,7.27,0,14.54,0,21.8,0,4.28-1.28,7.52-5.91,9.11-17.87,6.15-36,8.23-54.38,3.06-20.89-5.88-35-23.07-36.8-45-1-11.38-1-22.86,3-33.92,10.54-29.68,37.81-39.44,65.72-36.39,7.64.84,15.18,2.4,22.06,6.12,6.26,3.39,9.29,15,5.47,20.85-2.13,3.25-4.25.89-6.17-.17-10.82-5.93-22.2-9.36-34.66-7.9-17.4,2-29.77,14.28-31.58,31.83-.88,8.51-.87,17.08,2.17,25.41a34.21,34.21,0,0,0,43.83,20.85c2.67-.95,4.37-2.14,4.19-5.55-.33-6.37-.25-12.78,0-19.16.11-3.24-1.08-4.16-4.18-4-5.28.22-10.58-.11-15.86.12-3.13.14-4.29-1.43-4.9-4.05-2.3-9.82.42-13.38,10.25-13.38s19.39.27,29.07-.09c6.47-.25,8.73,2.89,8.74,8.68C360.07,126.36,360.06,133.63,360.06,140.9Z"/><path class="cls-2" d="M795.75,140.86c0,7.27,0,14.54,0,21.81,0,3.52-.61,7.07-4.11,8.3-24.27,8.51-48.48,11.16-71.56-3.37-13.88-8.74-19.86-22.62-21.54-38.25C696,105.81,700.29,84,721.17,69.77c21.36-14.52,44.69-13.87,67.93-4.09,6.21,2.61,9.25,15,5.87,20.68-2,3.4-4.24,1.25-6.1.17a59.3,59.3,0,0,0-30.73-8.48c-20.84.22-35.1,14.59-36.3,36.56-.69,12.61,1.22,24.78,10.76,34.1,10.27,10,22.73,11.42,36.1,7.73,2.61-.72,3.93-2.21,3.83-5.21-.22-6.38-.25-12.79,0-19.17.14-3.75-1.6-4.39-4.79-4.24-4.39.2-8.86-.36-13.2.14-7.37.86-7.15-4.15-7.1-8.76s-.29-9.25,7.11-8.85c11,.59,22,.29,33,.09,5.68-.1,8.08,2.67,8.14,8C795.8,125.88,795.75,133.37,795.75,140.86Z"/><path class="cls-2" d="M551.79,122.92c6.07,2.93,9.71,7.7,12.19,13.11,4.93,10.74,9.27,21.75,14,32.58,2.09,4.78.58,7-4.41,7.46-.44,0-.87.12-1.31.17-14.49,1.59-16.52.33-22-13-3.3-8.11-6.64-16.21-10.23-24.19a16.69,16.69,0,0,0-9.73-9.36c-9.32-3.32-13.24-.77-13.24,8.66,0,10.36-.16,20.72.08,31.07.1,4.14-1.27,6.24-5.44,6.42-1.31,0-2.61.41-3.92.49-12.43.78-13.59-.29-13.59-12.4q0-46.62,0-93.23c0-8.28,1.18-9.68,9.57-9.52,14.72.28,29.59-1.57,44.13,1.58,16.45,3.58,23.83,12.09,25.23,27.73,1.23,13.78-5.58,24.42-19.75,30.89C553.06,121.54,552.81,121.94,551.79,122.92Zm-34.71-28.3c0,19.18.45,19.6,17.53,16.23,10.77-2.13,15.48-8.53,14.08-19.09-1.38-10.32-9.26-14.61-27.45-12.71-8.94.92-2.09,9.18-4.13,13.61A5.12,5.12,0,0,0,517.08,94.62Z"/><path class="cls-2" d="M638.5,60.43c1.54,0,3.09.1,4.63,0,7.07-.53,10.87,2.24,13.27,9.46,10.49,31.55,21.67,62.87,32.6,94.27.65,1.86,1.4,3.69,2,5.58,1.1,3.67,0,6-4.11,6.37a74.58,74.58,0,0,1-15.16-.13c-3-.35-4.58-2.06-5.46-4.83-1.77-5.64-3.8-11.2-5.47-16.86-1-3.38-2.52-5-6.42-4.93-11.23.27-22.47.21-33.7,0-3.43,0-5.22,1.08-6.14,4.43-1.39,5.06-3.67,9.91-4.69,15-1.16,5.77-4.68,7.44-9.81,7.5-.44,0-.88,0-1.32,0-13.36.49-14.43-.9-10.14-13.27Q604.26,117.85,620,72.6C624.27,60.32,624.24,60.31,638.5,60.43Zm-17.38,71.26c9.87,0,19.1-.12,28.32.06,3.61.08,4.06-1.13,3-4.24-3.47-10.12-6.74-20.31-10.14-30.45-1.41-4.2-2.95-8.36-5-14C631.59,100.25,626.44,115.73,621.12,131.69Z"/><path class="cls-2" d="M426.57,60.47c2.2,0,4.4.06,6.6,0,5.57-.19,8.64,2.34,10.49,7.75,11.11,32.69,22.53,65.27,33.8,97.9,3.11,9,2.3,10.06-7.35,10.29-14,.33-14,.33-18.35-12.75-4.73-14.2-4.73-14.2-20-14.2-7.48,0-15,.29-22.44-.12-4.41-.24-6.29,1.54-7.33,5.47-1.29,4.87-3.27,9.56-4.34,14.46-1.19,5.38-4.64,6.77-9.5,7.09-14.93,1-16.18-.49-11.4-14.21q15.43-44.28,30.84-88.56C412.2,60.3,412.26,60.32,426.57,60.47Zm15,71L425.22,82.76c-5.75,17.36-10.87,32.85-16.13,48.74Z"/><path class="cls-2" d="M956.43,128.17c-11.1,5.62-22.72,6.59-34.66,3.53-8.45-2.17-14.76-7.37-17.39-15.68-5.2-16.39-5.15-32.7,7.46-45.79,12.45-12.92,28.5-13.65,44.84-8.93,12.59,3.64,18.69,13.6,21.33,25.55,4.09,18.52,4.1,37.19-.9,55.59-8,29.42-37.24,43.63-65.56,32.09-5.31-2.16-8.24-13.05-4.79-17.55,1.65-2.16,3.43-1.06,5.32-.54,5.71,1.56,11.37,3.19,17.44,3.16,14.93-.06,24-7.09,27.16-21.61a72.44,72.44,0,0,0,.86-8.49c.15-.36.31-.71.46-1.07Zm.75-24.72c0-6.19-.71-11.38-2.59-16.36-2.76-7.3-6.89-10.18-14.37-10.09-7.3.08-12.53,3.86-14.63,10.89a30.79,30.79,0,0,0-.38,16.87c1.84,7,5.61,10.29,12.92,10.9a29,29,0,0,0,11-1.51C954.74,112.43,959.7,110,957.18,103.45Z"/><path class="cls-2" d="M1049.37,127.66a47.87,47.87,0,0,1-34.54,4.27c-10.36-2.47-16.75-9-19.62-19.22-6.23-22.27,2.2-43.39,20.66-50.63a48.23,48.23,0,0,1,32.37-1c11.13,3.39,17.9,11.41,20.63,22.17,5.63,22.18,6,44.55-2.18,66.22-9.28,24.68-41.12,36.46-64.52,24.53-3.95-2-6.26-13.63-3.43-17.12,1.42-1.75,3-1.1,4.78-.63,5.08,1.36,10,3.12,15.42,3.28C1039.15,160.13,1050.37,148.67,1049.37,127.66Zm-32.9-30.83c0,16.21,8.73,22.33,24.62,17.4,6.15-1.91,10-4.85,8.42-12.18-1.16-5.54-1.17-11.31-3.55-16.63s-6.4-8.09-12.24-8.41C1022.73,76.4,1016.5,83.51,1016.47,96.83Z"/><path class="cls-2" d="M819.54,118.27c0-16.08.13-32.16-.07-48.23-.07-6.11,2.39-9,8.53-8.94,17.62.07,35.24.13,52.85-.06,4.79,0,6,2.24,6.21,6.41.49,10.92-.08,11.62-10.75,11.62-9.47,0-18.95.2-28.41-.1-4.19-.13-5.32,1.36-5.15,5.3.27,6.16.26,12.34,0,18.5-.15,3.76,1.2,4.93,4.92,4.83,8.8-.24,17.62.11,26.42-.15,4.38-.14,6.32,1.15,6.6,5.81.67,11.28.31,11.87-11.07,11.87-7.48,0-15,.18-22.46-.08-3.53-.12-4.51,1.07-4.41,4.48.22,7.7.25,15.42,0,23.11-.14,3.83,1.21,4.88,4.89,4.81,10.79-.21,21.6.3,32.37-.21,7.61-.36,7.38,4.38,7.39,9.36s.2,9.37-7.45,9.12c-17.16-.57-34.35-.14-51.53-.2-7.22,0-8.85-1.71-8.87-9C819.5,150.42,819.54,134.35,819.54,118.27Z"/><path class="cls-2" d="M143.32,110c.07-1-.36-1.36-1.26-1.39H134.8c-7.15,0-14.33-.3-21.45.19-7.83.54-14.2-2.43-20.25-6.79l-.85-.53,0,0-.49-.32h0l-.72-.47h0l-.16,0h0a10.23,10.23,0,0,1-1.21-.56c-1.37-.87-2.86-1.6-3.9.2s.45,2.67,1.8,3.46c5.13,3,10,6.33,15.51,8.63,1.28.93,2.8,0,4.13.53l35.29,0a6.21,6.21,0,0,1-.85.21,6.21,6.21,0,0,0,.85-.21l.87-.26C143.33,111.76,143.26,110.86,143.32,110Z"/><path class="cls-2" d="M146.17,59.52s0,.08,0,.15h0A.8.8,0,0,1,146.17,59.52Z"/><path class="cls-2" d="M137.71,54.35c0-.09.1-.19.13-.27h0C137.81,54.16,137.74,54.26,137.71,54.35Z"/><polygon class="cls-2" points="141.59 145.4 141.59 145.41 141.59 145.4 141.59 145.4"/><path class="cls-2" d="M68.94,109.5h0a1.92,1.92,0,0,0-.29-.14A1.34,1.34,0,0,1,68.94,109.5Z"/><path class="cls-2" d="M98.51,120.81a41.13,41.13,0,0,0-16.33-11.67c-5.77-2.18-8.55-1-11.29,4.56,0,.14-.06.29-.08.43s0,.31-.08.47c0,.75,0,1.51,0,2.27a14.91,14.91,0,0,0,2,4.95c-.18,0-.34-.09-.5-.14l.49.14a30,30,0,0,0,8.71,5,37.53,37.53,0,0,0,13.87,2.28c5.79-1.08,6.75-3.47,3.25-8.13Z"/><path class="cls-2" d="M165,161.85l0,0-.9-1.37a4.48,4.48,0,0,0-4.44-.63,1.72,1.72,0,0,1,.48-.72,1.72,1.72,0,0,0-.48.72l-.75.56a2.38,2.38,0,0,0-.77-1.2,2.38,2.38,0,0,1,.77,1.2c-.83.49-1,1.42-1.4,2.19q.74.51,0,1a1.27,1.27,0,0,1-.32-.25,1.27,1.27,0,0,0,.32.25c.94,1.95,2.31,3.33,4.66,2.91,2.06-.37,2.89-1.87,2.8-4.64a3.19,3.19,0,0,1,1.82,1.22A3.19,3.19,0,0,0,165,161.85Z"/><path class="cls-2" d="M169.34,168.8h0c0-.08.08-.15.11-.23C169.42,168.64,169.37,168.72,169.34,168.8Z"/><path class="cls-2" d="M132.52,12.12a105,105,0,1,0,105,105.05A105,105,0,0,0,132.52,12.12ZM56.68,93.44c-3.72-1-5.82-4-5.53-7,.31-3.27,3.22-6.1,7-6.65,1.63-.23,3.3-.21,5-.3,2.48.11,5-.14,7.35.87,3.19,1.35,5,3.79,5,6.6a7,7,0,0,1-5.18,6.43A24.33,24.33,0,0,1,56.68,93.44ZM94.94,163.5c-.13,2.58-.24,5.11-1.45,7.46A4.63,4.63,0,0,1,89,173.75c-2.34-.06-4.67,0-7,0h0c-2.34,0-4.67,0-7,0a4.6,4.6,0,0,1-4.36-2.66,10.8,10.8,0,0,1-1.4-5c-.12-3.54,0-7.09-.06-10.63,0-1,.19-1.63,1.22-.73,6.4,5.58,14,6.89,22.17,6.4C94.4,161.06,95,161.56,94.94,163.5Zm50.7-11.76c0,.38.09.75.1,1.13.06,3.89-.13,4.12-4,4.13q-17.88,0-35.77,0h-1.86a46.75,46.75,0,0,1,4.8-6.2c6.17-7.58,5.52-6.76,14.25-6.76,6,0,12.07-.06,18.11,0,1.58,0,2-.46,2.08-2s-.39-2.23-2.13-2.21c-7.78.09-15.55.07-23.33,0-3.66,0-6.49,1.65-8.89,4.25a9.22,9.22,0,0,1-2.2,2.25,61.46,61.46,0,0,1-6.46,8.11l-.62.64a1,1,0,0,1-.63.8h0l-.44.6a.25.25,0,0,1-.22.27l-.07.15-.12-.08a59.12,59.12,0,0,1-10.56,0c-10.85.5-21.14-8.47-22.15-19.35a34,34,0,0,1,0-6.54c-.18-6.07-.21-12.14,0-18.21a12.21,12.21,0,0,1,.49-2.18,22,22,0,0,1,8.77-14C76.93,94.93,79.1,93.4,80.4,91,83,85.84,86,80.94,89,76.09c2.9-5.42,5.7-10.92,10.45-15.05.59-.51,1-1.31,2-1.26h0c.32-1,1.18-1.24,2-1.62l.41-.23a.94.94,0,0,1,.83-.52,23.09,23.09,0,0,1,12.76-3.8c3.53-.12,7.07,0,10.6,0,1.77,0,2.47.63,2.16,2.45-.73,4.35-.69,4.35-5.12,4.36-5.32,0-10.7-.47-15.7,2C103.55,65.52,100,70.64,97,76.31c-.46.86-1.06,1.63-1.6,2.45l-.36.55h0c-.06.13-.12.26-.17.4a1.24,1.24,0,0,1-.61,1h0c-1.66,2.94-3.23,5.93-5,8.79-1.16,1.84-.51,2,1.24,2,2.55-.08,5.11,0,7.66.07,14.1,0,28.2,0,42.3-.11,6,0,5.33.21,5.31,5.29q0,12.78-.09,25.56ZM180.25,82a1.38,1.38,0,0,1-.41.18l-.05-.14,0,.14A20.13,20.13,0,0,1,176,85.53c-.56,1.47-2.55,1.92-2.7,3.7q-.69,3-1.4,5.9c0,.45,0,.9,0,1.34v65.25a.41.41,0,0,1,0,.43l0,1.83a3.6,3.6,0,0,1-.85,3.09l-.07,0c-.74,1.77-1.49,3.52-3.46,4.28l-1.89,1.2a1.8,1.8,0,0,1-.59-.28,1.8,1.8,0,0,0,.59.28c-4.4,2.73-11.2.32-13.54-4.82a8.22,8.22,0,0,1-.94-3.45q0-10.35,0-20.71V114.15c0-4.94-.08-9.88-.08-14.82a49.2,49.2,0,0,0-.39-7.38.17.17,0,0,1-.07-.28,2.13,2.13,0,0,1-.53-1.49A26.08,26.08,0,0,0,144,83c-6.83-6-10-13.64-9.08-22.8.62-7.85,4.3-14,10.39-18.86a2,2,0,0,1,2.27-.49c.85.45.85,1.33.85,2.18q0,7.68,0,15.36c.27.62.55,1.23.83,1.84l2.9,2.15h0a.81.81,0,0,1,.82.46l.73.45.15,0,.42.21c2.7,1.54,5.16,3.69,8.6,3.34,2.92-1.7,5.82-3.45,8.77-5.1a5.45,5.45,0,0,0,3.06-5.33c-.11-4.52,0-9,0-13.57,0-.84,0-1.69,1-2.1a2,2,0,0,1,2.07.46C190.71,50.61,192,71,180.25,82Z"/><path class="cls-2" d="M148.74,63.47a5.14,5.14,0,0,1-.77,0A5.14,5.14,0,0,0,148.74,63.47Z"/></svg>