<svg id="Car_Exterior" data-name="Car Exterior" xmlns="http://www.w3.org/2000/svg" viewBox="0 0 844 223"><defs><style>.cls-1{fill:#383838;}.cls-2{fill:#373737;}.cls-3{fill:#363636;}.cls-4{fill:#df0417;}</style></defs><path class="cls-1" d="M622.49,100.06c0,5.49,0,11,0,16.47,0,3.1-1,5.44-4.16,6.56-13.79,4.83-27.77,6.52-42,2.25-17.19-5.17-25.62-17.74-27.35-34.8-1.83-18,1.82-34.59,18.13-45,15.85-10.11,33-9.72,50-2.52,5,2.09,7.3,10.49,4.88,15.43-1.26,2.57-2.84,1.48-4.47.58a50.69,50.69,0,0,0-17.69-6.13C575.44,49.51,564.28,68.55,567,88.7c3,22.57,21.57,26.8,34.3,23.21,2.59-.73,3.84-2,3.68-4.86a134.49,134.49,0,0,1,0-13.47c.15-3-1.07-3.7-3.79-3.55-3.48.2-7-.1-10.47.1-2.89.17-4.13-.84-4.56-3.78-1.12-7.73.15-9.38,7.91-9.38,7.15,0,14.3,0,21.46,0,5.59,0,6.92,1.36,7,7.12C622.53,89.41,622.49,94.74,622.49,100.06Z"/><path class="cls-2" d="M293.51,100c0,5.49,0,11,0,16.47,0,3-.77,5.44-4.1,6.6-13.79,4.8-27.76,6.53-41.95,2.2-15.71-4.78-26-17.42-27.26-33.81-.74-9.28-.68-18.6,3-27.46,7.05-16.91,20.48-24.53,38-25.82a54,54,0,0,1,26.26,4.31c5.82,2.6,8.36,10.41,5.48,16-1.55,3-3.33,1-4.88.16-8.19-4.44-16.78-7-26.19-5.89-13.07,1.55-22.45,10.91-23.74,24.14-.63,6.43-.63,12.89,1.69,19.18A25.91,25.91,0,0,0,273,111.71c1.75-.65,3.16-1.31,3.05-3.76-.22-5-.19-10,0-15,.1-2.59-1.05-3-3.26-2.94-3.82.14-7.66-.13-11.47.09-2.84.17-3.79-1.2-4.18-3.67-1.2-7.6.35-9.49,7.93-9.49,7.32,0,14.64.18,21.95-.07,4.57-.15,6.42,2,6.47,6.17C293.55,88.72,293.5,94.38,293.51,100Z"/><path class="cls-3" d="M438.31,86.16c6.71,3.78,9.49,10.16,12.22,16.53,2.6,6.07,5,12.24,7.6,18.32,1.39,3.28.55,5.09-3.09,5.39-.82.07-1.65.2-2.47.25-10.68.67-11.24.28-15.26-9.58-2.5-6.12-5-12.25-7.72-18.27a13,13,0,0,0-7.21-7.22c-7.18-2.74-10.29-.79-10.29,6.59,0,7.82-.08,15.65.05,23.47,0,2.8-.76,4.49-3.79,4.58-.65,0-1.3.29-2,.37-9.9,1.2-11.58-.25-11.58-10q0-34.95,0-69.89c0-6,.92-7,6.91-7,9.81,0,19.64,0,29.44.41C443,40.63,452,47.91,453.75,57.6c2.36,13.36-2,21.94-13.93,27.49A13.71,13.71,0,0,0,438.31,86.16ZM420.14,53c-8.07,0-8.07,0-8.07,7.85v6c0,12.36.65,12.87,13.12,10.43.65-.13,1.32-.15,2-.32,5.77-1.52,9.07-5.93,9-12-.08-6.27-2.79-9.56-9-11.31C424.71,52.91,422.26,53.18,420.14,53Z"/><path class="cls-2" d="M342.66,106.37c-4,0-8,.25-12-.07-3.32-.28-4.76,1.12-5.55,4.1-.92,3.51-2.13,6.95-3.26,10.41-1.71,5.28-12.68,8.5-17,4.89-1.92-1.61-.79-3.6-.14-5.48q8.73-25.27,17.42-50.56c2.9-8.42,6-16.79,8.72-25.27,1.14-3.51,3.26-5.15,6.83-5.19l1,0c15.39-.66,15.41-.66,20.47,13.85q11.49,33,23,65.92c2.35,6.8,1.74,7.61-5.54,7.78h-.5c-10.11.15-10.11.15-13.36-9.62-3.58-10.74-3.58-10.74-15.11-10.74ZM355,92.8,342.72,56c-4.33,13.08-8.2,24.78-12.18,36.79Z"/><path class="cls-2" d="M534.43,126.7c-8.25,0-8.25,0-11-8.09-4.14-12.24-4.14-12.24-17.07-12.24-5.32,0-10.65.13-16-.05-2.85-.1-4.16.94-4.86,3.69-.93,3.68-2.33,7.24-3.51,10.85-1.72,5.24-12.84,8.37-17,4.78-2.06-1.77-.64-3.86-.08-5.52,4.4-13,9-25.86,13.54-38.81,4.18-12,8.28-24.07,12.42-36.1.37-1.09.51-2.45,1.25-3.21,5.09-5.21,11.58-2.21,17.46-2.71,3.43-.3,5.73,1.42,6.95,5,6.56,19.23,13.3,38.39,20,57.58,2,5.77,4.07,11.53,6,17.33,2.13,6.37,1.49,7.25-5.11,7.5C536.43,126.74,535.43,126.7,534.43,126.7ZM490.61,93c7.43,0,14.38-.08,21.33,0,2.56,0,3.22-.66,2.37-3.14C510.6,79,507,68.12,503,56.07,498.66,68.93,494.7,80.74,490.61,93Z"/><path class="cls-4" d="M743.82,90.31A36.24,36.24,0,0,1,717.65,93c-6.39-1.64-11.15-5.56-13.14-11.84-3.92-12.37-3.88-24.68,5.64-34.57S731.67,36.25,744,39.82c9.5,2.74,14.11,10.26,16.1,19.29a86.89,86.89,0,0,1-.68,42c-6,22.22-28.12,33-49.5,24.23-4-1.63-6.23-9.85-3.62-13.25,1.25-1.63,2.59-.8,4-.41,4.31,1.18,8.59,2.41,13.17,2.39,11.27,0,18.15-5.36,20.51-16.32a56.56,56.56,0,0,0,.64-6.41l.35-.8Zm.54-19.68a33.89,33.89,0,0,0-2-11.67c-1.82-4.92-5.31-7.37-10.6-7.31s-9.25,2.62-11,7.63a22.55,22.55,0,0,0,0,15.1c1.87,5.39,7.31,7.59,14.53,6.08C743.62,78.73,744.68,77.58,744.36,70.63Z"/><path class="cls-4" d="M813.87,90a35.93,35.93,0,0,1-26.59,3,18.53,18.53,0,0,1-13.11-11.22c-4.91-11.63-2.67-27.72,5.58-35.49,10.16-9.55,22.35-10.18,34.93-6.07,7.71,2.52,12.22,8.73,14.1,16.29,4.07,16.42,4.18,32.88-1.39,49.08-8.27,24-34.06,25.1-48.7,19.4-3.36-1.31-5.2-10.52-2.83-13.13,1.15-1.27,2.36-.65,3.65-.31,4.16,1.12,8.24,2.42,12.65,2.47C806.54,114.19,815.19,104.82,813.87,90ZM789.16,68.31c.07,3.59.27,8.88,5.65,11.31,6.28,2.84,12.3.91,18-2.27,1.22-.67,1.34-1.74,1.32-2.95-.09-5.32-.54-10.59-2.4-15.62s-5.47-7.24-10.73-7.14C793.33,51.79,789.14,57.12,789.16,68.31Z"/><path class="cls-2" d="M640.45,82.57c0-12,0-23.95,0-35.92,0-5.53,1.25-6.91,6.64-6.94,13.14-.09,26.28.11,39.41-.1,5.73-.09,4.81,3.71,4.87,7.11s.46,6.76-4.84,6.58c-8.14-.27-16.3.1-24.44-.15-3.43-.11-4.28,1.09-4.12,4.28.23,4.64.16,9.31,0,14-.09,2.61.89,3.43,3.46,3.38,6.65-.15,13.31.11,19.95-.12,3.55-.12,5.08.91,5.24,4.66.37,8.31.16,8.7-8.14,8.7-5.65,0-11.31.16-17-.06-2.9-.12-3.68.85-3.58,3.64.2,5.82.18,11.65,0,17.46-.08,2.68.91,3.39,3.46,3.36,8.31-.13,16.63.19,24.94-.13,5.94-.24,5.23,3.74,5.3,7.31s.12,6.77-5.38,6.61c-13-.39-25.93-.1-38.9-.14-5.77,0-6.93-1.22-6.94-7.07C640.43,106.85,640.45,94.71,640.45,82.57Z"/><path class="cls-4" d="M141.92,16.47c-4.53,0-8.61.07-12.69,0-1.69,0-2.52.8-3.56,2-4.43,5.2-4.38,10.14,0,15.33,1.06,1.25,1.89,2,3.57,1.94,4.07-.11,8.15,0,12.22,0,.26,1-.45,1.53-.87,2.12-6.76,9.42-20.94,10.74-29,2.49-4.7-4.81-10.06-6.24-16.57-5.09-33.39,5.85-58.7,31-63.67,64.39-4.07,27.27,4.92,50.24,24.92,69,.89.84,1.84,1.6,2.74,2.41,3.6,3.27,4.11,8.19,1.22,11.63a8.16,8.16,0,0,1-11.85.89,95.22,95.22,0,0,1-22-25.56c-10.49-18.17-13.52-37.83-11.66-58.49,3.35-37,35-71.72,71.56-79.23a79.26,79.26,0,0,1,12.34-1.87,16.76,16.76,0,0,0,12.08-5.72,19.3,19.3,0,0,1,27.21-1.24A18.52,18.52,0,0,1,141.92,16.47ZM57.37,177.57a3.49,3.49,0,1,0-7-.07A3.65,3.65,0,0,0,53.84,181,3.69,3.69,0,0,0,57.37,177.57Z"/><path class="cls-3" d="M72.94,205.89c4.32,0,8.4-.06,12.47,0,1.65,0,2.77-.35,3.55-1.93a39.05,39.05,0,0,1,3.25-5.6,3.12,3.12,0,0,0-.07-4.19,13.48,13.48,0,0,1-2-3.33c-1.25-3.52-3.66-4.46-7.21-4.11-3.25.32-6.56.07-10.25.07a18.94,18.94,0,0,1,12.82-9.64c6.41-1.43,12.51-.17,17.07,4.57,5.4,5.61,11.47,6.73,18.72,5.15,33.27-7.26,54.11-27.63,61.26-60.62C188.9,97,179,72.38,156.91,52.52c-2-1.83-4-3.59-4.27-6.54-.28-3.51.91-6.36,4.06-8.09a7.8,7.8,0,0,1,9.23.8,89.15,89.15,0,0,1,17.74,19,92.21,92.21,0,0,1,16.81,58.28,93.37,93.37,0,0,1-73.43,86.54,77.37,77.37,0,0,1-12.34,1.75,14.77,14.77,0,0,0-10.39,5.17C96,218.32,83,218.16,75,209.18A8.5,8.5,0,0,1,72.94,205.89ZM164.19,45.06a3.49,3.49,0,0,0-3.51-3.63,3.59,3.59,0,0,0-3.42,3.49,3.84,3.84,0,0,0,3.53,3.73A3.88,3.88,0,0,0,164.19,45.06Z"/><path class="cls-1" d="M107.26,139.1c-11.12,0-22.24-.19-33.35.06-8.45.19-13.32-5.93-13.07-13.11.17-5-.51-10.11.28-15.09,1.08-6.78,5.93-10.95,12.78-11q33.36-.15,66.71,0c7.88,0,13,5.54,13.08,13.44q0,6.65,0,13.28c0,7.55-4.71,12.35-12.3,12.39C130,139.15,118.64,139.1,107.26,139.1Zm-.14-4.21q13.93,0,27.87,0c2.78,0,3.33-.83,2.17-3.46a8.9,8.9,0,0,0-8.54-5.38c-14.15-.18-28.3-.15-42.45,0a9.12,9.12,0,0,0-8.63,5.26c-1.32,2.77-.79,3.59,2.23,3.59Zm-.12-26V109c4.69,0,9.39,0,14.08,0,6.34,0,12.68-.1,19-.24a6.64,6.64,0,0,0,5.1-2.15c.51-.6.9-1.35,0-2s-1.25-.08-1.68.5a4.4,4.4,0,0,1-2.18,1.3c-1.66.63-3.26-.08-4.89-.07q-29.2.08-58.4,0a8.46,8.46,0,0,0-1.82,0,5.09,5.09,0,0,1-5.42-1.49c-.38-.43-.75-.73-1.33-.39s-.61,1-.41,1.6A3.27,3.27,0,0,0,71,107.77a12.92,12.92,0,0,0,6.33,1.12ZM74.53,121.74a7.92,7.92,0,0,0,4.52-1.54A1.27,1.27,0,0,0,79.3,118c-3.11-3.26-6.21-6.52-10.24-8.72-1.8-1-3.15-.41-4.33,1a5.12,5.12,0,0,0,.27,7C67.57,120.07,70.87,121.23,74.53,121.74Zm76.59-7.68a5.28,5.28,0,0,0-2.68-4.91c-1.57-1-2.83.15-4,.86-3.38,2-6.06,4.87-8.8,7.64-1.21,1.21-.78,2.06.45,2.91,4.78,3.3,13.58-1.54,14.91-5.15A4.63,4.63,0,0,0,151.12,114.06Z"/><path class="cls-3" d="M107.25,98q-17.59,0-35.2,0c-3.23,0-3.28-.1-1.79-2.84,2.39-4.41,4.81-8.8,7.22-13.2,2.86-5.21,7.33-7.63,13.22-7.63,11.21,0,22.42,0,33.62,0,5.46,0,9.75,2.18,12.47,7,2.63,4.67,5.18,9.39,7.74,14.1C145.79,97.77,145.68,98,143,98Q125.11,98,107.25,98Z"/><path class="cls-1" d="M63,137.49a16.62,16.62,0,0,0,10.77,4.1c1,0,2.66-1.08,2.75,1.11.08,2,.24,4.44-2.13,5a22.66,22.66,0,0,1-9.28,0c-1.81-.34-2-2.29-2.07-3.81C62.83,141.94,63,140,63,137.49Z"/><path class="cls-1" d="M151.6,137.59c0,2.67.11,4.82,0,6.95s-1.19,3.53-3.63,3.44c-2.16-.08-4.33.05-6.49,0s-4.27-3.56-3.34-5.57c.42-.92,1.25-.84,2-.82A16.55,16.55,0,0,0,151.6,137.59Z"/><path class="cls-1" d="M153.35,98.67a6.88,6.88,0,0,1-3.78-.62,2.5,2.5,0,0,1,.37-4.81,9.71,9.71,0,0,1,6.82,0c1.07.37,2.05,1,2.13,2.31a2.68,2.68,0,0,1-2,2.71A7.18,7.18,0,0,1,153.35,98.67Z"/><path class="cls-1" d="M61.31,98.67a7.41,7.41,0,0,1-3.56-.45,2.56,2.56,0,0,1,.09-5,10,10,0,0,1,6.82,0c1.08.4,2,1,2,2.37a2.66,2.66,0,0,1-2,2.66A7.15,7.15,0,0,1,61.31,98.67Z"/><path class="cls-2" d="M242.25,148.55h7.89l12.36,37.93h-7.12L249.6,166.3c-1.2-4-2.32-8.34-3.43-12.51h-.23c-1.05,4.2-2.16,8.49-3.37,12.51l-5.82,20.18h-6.87Zm-5.06,22.38h17.87v5.27H237.19Z"/><path class="cls-2" d="M282.43,169.85v-21.3h6.73v21.81c0,8.26,3.09,11,7.68,11s7.84-2.71,7.84-11V148.55h6.47v21.3c0,12.46-5.52,17.33-14.31,17.33S282.43,182.31,282.43,169.85Z"/><path class="cls-2" d="M344.45,154.21H333.5v-5.66h28.62v5.66H351.17v32.27h-6.72Z"/><path class="cls-2" d="M381.14,167.37c0-12.28,6.84-19.52,16.72-19.52s16.73,7.28,16.73,19.52-6.84,19.81-16.73,19.81S381.14,179.64,381.14,167.37Zm26.54,0c0-8.52-3.85-13.67-9.82-13.67s-9.81,5.15-9.81,13.67,3.85,14,9.81,14S407.68,175.88,407.68,167.37Z"/><path class="cls-2" d="M463.59,181.62l3.92-4.62a14.88,14.88,0,0,0,9.88,4.33c4.27,0,6.61-1.94,6.61-4.89,0-3.12-2.44-4.12-5.89-5.58l-5.18-2.25c-3.74-1.56-7.67-4.52-7.67-10.06,0-6,5.34-10.7,12.74-10.7a16.64,16.64,0,0,1,11.69,4.84L486.23,157A12.23,12.23,0,0,0,478,153.7c-3.6,0-5.94,1.68-5.94,4.46,0,3,2.89,4.08,6,5.37l5.12,2.14c4.51,1.88,7.66,4.73,7.66,10.23,0,6.15-5.1,11.28-13.62,11.28A19.54,19.54,0,0,1,463.59,181.62Z"/><path class="cls-2" d="M514,148.55h11.95c8.42,0,14.66,2.92,14.66,11.69,0,8.46-6.26,12.3-14.43,12.3h-5.45v13.94H514Zm11.62,18.61c5.66,0,8.35-2.25,8.35-6.92s-2.94-6.31-8.58-6.31h-4.66v13.23Z"/><path class="cls-2" d="M568.44,148.55h7.89l12.37,37.93h-7.13L575.8,166.3c-1.21-4-2.32-8.34-3.44-12.51h-.23c-1,4.2-2.16,8.49-3.36,12.51l-5.83,20.18h-6.86Zm-5.06,22.38h17.87v5.27H563.38Z"/><path class="cls-2" d="M609.22,148.55H622c7.89,0,14,2.78,14,11.25,0,8.16-6.07,11.86-14,11.86h-6.06v14.82h-6.72Zm12.08,17.72c5.2,0,8-2.15,8-6.47s-2.83-5.87-8-5.87h-5.36v12.34Zm-.57,3.59,4.88-4,11.84,20.63h-7.56Z"/><path class="cls-2" d="M659.73,148.55h22.83v5.66h-16.1v9.72H680.1v5.66H666.46v11.23h16.68v5.66H659.73Z"/><path class="cls-2" d="M704.52,181.62l3.92-4.62a14.9,14.9,0,0,0,9.89,4.33c4.26,0,6.61-1.94,6.61-4.89,0-3.12-2.45-4.12-5.9-5.58l-5.18-2.25c-3.74-1.56-7.67-4.52-7.67-10.06,0-6,5.34-10.7,12.74-10.7a16.64,16.64,0,0,1,11.69,4.84L727.17,157a12.25,12.25,0,0,0-8.24-3.26c-3.6,0-5.94,1.68-5.94,4.46,0,3,2.89,4.08,6,5.37l5.12,2.14c4.51,1.88,7.66,4.73,7.66,10.23,0,6.15-5.1,11.28-13.61,11.28A19.55,19.55,0,0,1,704.52,181.62Z"/></svg>