<?xml version="1.0" encoding="UTF-8"?>
<svg xmlns="http://www.w3.org/2000/svg" xmlns:xlink="http://www.w3.org/1999/xlink" viewBox="0 0 50 50" width="50px" height="50px">
<g id="surface439043">
<path style=" stroke:none;fill-rule:nonzero;fill:rgb(100%,100%,100%);fill-opacity:1;" d="M 25 2 C 12.300781 2 2 12.300781 2 25 C 2 29.101562 3.101562 32.898438 5 36.199219 L 2 46.699219 C 1.898438 47 2 47.398438 2.199219 47.699219 C 2.5 48 2.898438 48 3.199219 48 L 14.199219 45.300781 C 17.398438 47 21.101562 48 25 48 C 37.699219 48 48 37.699219 48 25 C 48 12.300781 37.699219 2 25 2 Z M 25 4 C 36.601562 4 46 13.398438 46 25 C 46 36.601562 36.601562 46 25 46 C 21.300781 46 17.800781 45 14.800781 43.300781 C 14.601562 43.199219 14.300781 43.097656 14.101562 43.199219 L 4.5 45.601562 L 7 36.402344 C 7.101562 36.101562 7 35.898438 6.902344 35.601562 C 5.101562 32.5 4 28.898438 4 25 C 4 13.398438 13.398438 4 25 4 Z M 18.113281 12.988281 C 17.925781 12.976562 17.800781 13 17.800781 13 L 16.601562 13 C 16 13 15.101562 13.199219 14.300781 14 C 13.800781 14.5 12 16.300781 12 19.5 C 12 22.898438 14.300781 25.800781 14.597656 26.097656 C 14.597656 26.097656 15 26.601562 15.5 27.300781 C 16 28 16.699219 28.800781 17.597656 29.800781 C 19.398438 31.699219 21.898438 33.898438 25.097656 35.199219 C 26.5 35.800781 27.699219 36.199219 28.597656 36.5 C 30.199219 37 31.699219 36.902344 32.800781 36.800781 C 33.601562 36.699219 34.5 36.300781 35.398438 35.699219 C 36.300781 35.097656 37.199219 34.402344 37.597656 33.402344 C 37.898438 32.601562 38 31.902344 38.097656 31.300781 L 38.097656 30.5 C 38.097656 30.199219 38 30.199219 37.800781 29.800781 C 37.300781 29 36.800781 29 36.199219 28.800781 C 35.898438 28.601562 35 28.199219 34.199219 27.800781 C 33.300781 27.402344 32.597656 27 32.097656 26.800781 C 31.800781 26.699219 31.398438 26.5 30.898438 26.601562 C 30.398438 26.699219 29.898438 27 29.597656 27.5 C 29.300781 27.898438 28.199219 29.300781 27.800781 29.699219 L 27.699219 29.601562 C 27.300781 29.398438 26.699219 29.199219 26 28.800781 C 25.199219 28.402344 24.300781 27.800781 23.199219 26.800781 C 21.597656 25.402344 20.5 23.699219 20.199219 23.101562 C 20.5 22.699219 20.898438 22.300781 21.097656 22 C 21.199219 21.898438 21.28125 21.800781 21.347656 21.699219 C 21.417969 21.597656 21.476562 21.5 21.523438 21.402344 C 21.625 21.199219 21.699219 21 21.800781 20.800781 C 22.199219 20.101562 22 19.300781 21.800781 18.902344 C 21.800781 18.902344 21.699219 18.601562 21.5 18.300781 C 21.398438 18 21.199219 17.5 21 17.101562 C 20.601562 16.199219 20.199219 15.199219 20 14.601562 C 19.699219 13.898438 19.300781 13.398438 18.800781 13.199219 C 18.550781 13.050781 18.300781 13 18.113281 12.988281 Z M 16.597656 15 L 17.898438 15 C 17.898438 15 18 15.101562 18.097656 15.402344 C 18.300781 16 18.800781 17 19.097656 17.902344 C 19.300781 18.300781 19.5 18.800781 19.597656 19.101562 C 19.699219 19.398438 19.800781 19.601562 19.898438 19.800781 C 19.898438 19.902344 20 19.902344 20 19.902344 C 19.800781 20.300781 19.800781 20.398438 19.5 20.699219 C 19.199219 21.097656 18.800781 21.5 18.699219 21.699219 C 18.597656 21.898438 18.300781 22.101562 18.097656 22.5 C 17.898438 22.898438 18 23.601562 18.300781 24.101562 C 18.699219 24.699219 19.902344 26.699219 21.800781 28.402344 C 23 29.5 24.101562 30.199219 25 30.601562 C 25.898438 31.101562 26.601562 31.300781 26.800781 31.402344 C 27.199219 31.601562 27.597656 31.699219 28.097656 31.699219 C 28.597656 31.699219 29 31.300781 29.300781 31 C 29.699219 30.601562 30.699219 29.398438 31.199219 28.601562 L 31.398438 28.699219 C 31.398438 28.699219 31.699219 28.800781 32.097656 29 C 32.5 29.199219 32.898438 29.398438 33.398438 29.601562 C 34.300781 30 35.101562 30.398438 35.398438 30.601562 L 36 30.902344 L 36 31.199219 C 36 31.597656 35.898438 32.199219 35.699219 32.800781 C 35.597656 33.101562 35 33.699219 34.398438 34.101562 C 33.699219 34.5 32.898438 34.800781 32.597656 34.902344 C 31.699219 35 30.601562 35.097656 29.300781 34.699219 C 28.5 34.398438 27.398438 34.101562 26 33.5 C 23.199219 32.300781 20.898438 30.300781 19.199219 28.5 C 18.398438 27.601562 17.699219 26.800781 17.199219 26.199219 C 16.699219 25.597656 16.5 25.199219 16.300781 25 C 15.902344 24.601562 14 22 14 19.601562 C 14 17.101562 15.199219 16.101562 15.800781 15.402344 C 16.101562 15 16.5 15 16.597656 15 Z M 16.597656 15 "/>
</g>
</svg>
